<?xml version="1.0" encoding="UTF-8" standalone="no"?>
<!DOCTYPE svg PUBLIC "-//W3C//DTD SVG 1.1//EN" "http://www.w3.org/Graphics/SVG/1.1/DTD/svg11.dtd">
<svg class="railroad-diagram" width="832.5" height="78" viewBox="0 0 832.5 78" id="analyze_stmt" xmlns="http://www.w3.org/2000/svg" xmlns:xlink="http://www.w3.org/1999/xlink"><g transform="translate(.5 .5)"><g><path d="M20 37v20m0 -10h20"></path></g><g><path d="M40 47h0"></path><path d="M792.5 47h0"></path><path d="M40 47h20"></path><g><path d="M60 47h0"></path><g><path d="M60 47h10"></path><path d="M762.5 47h10"></path><g class="terminal "><path d="M70 47h0"></path><path d="M166.5 47h0"></path><rect x="70" y="36" width="96.5" height="22"></rect><text x="118.25" y="51">ANALYZE</text></g><path d="M166.5 47h10"></path><g><path d="M176.5 47h0"></path><path d="M270.5 47h0"></path><path d="M176.5 47a10 10 0 0 0 10 -10v-7a10 10 0 0 1 10 -10"></path><g><path d="M196.5 20h54"></path></g><path d="M250.5 20a10 10 0 0 1 10 10v7a10 10 0 0 0 10 10"></path><path d="M176.5 47h20"></path><g class="terminal "><path d="M196.5 47h0"></path><path d="M250.5 47h0"></path><rect x="196.5" y="36" width="54" height="22"></rect><text x="223.5" y="51">DS</text></g><path d="M250.5 47h20"></path></g><path d="M270.5 47h10"></path><g class="non-terminal "><path d="M280.5 47h0"></path><path d="M360 47h0"></path><rect x="280.5" y="36" width="79.5" height="22" rx="10" ry="10"></rect><text x="320.25" y="51">ds_name</text></g><path d="M360 47h10"></path><g><path d="M370 47h0"></path><path d="M481 47h0"></path><path d="M370 47a10 10 0 0 0 10 -10v-7a10 10 0 0 1 10 -10"></path><g><path d="M390 20h71"></path></g><path d="M461 20a10 10 0 0 1 10 10v7a10 10 0 0 0 10 10"></path><path d="M370 47h20"></path><g class="terminal "><path d="M390 47h0"></path><path d="M461 47h0"></path><rect x="390" y="36" width="71" height="22"></rect><text x="425.5" y="51">*</text></g><path d="M461 47h20"></path></g><g><path d="M481 47h0"></path><path d="M609 47h0"></path><path d="M481 47a10 10 0 0 0 10 -10v-7a10 10 0 0 1 10 -10"></path><g><path d="M501 20h88"></path></g><path d="M589 20a10 10 0 0 1 10 10v7a10 10 0 0 0 10 10"></path><path d="M481 47h20"></path><g class="non-terminal "><path d="M501 47h0"></path><path d="M589 47h0"></path><rect x="501" y="36" width="88" height="22" rx="10" ry="10"></rect><text x="545" y="51">key_item</text></g><path d="M589 47h20"></path></g><g><path d="M609 47h0"></path><path d="M762.5 47h0"></path><path d="M609 47a10 10 0 0 0 10 -10v-7a10 10 0 0 1 10 -10"></path><g><path d="M629 20h113.5"></path></g><path d="M742.5 20a10 10 0 0 1 10 10v7a10 10 0 0 0 10 10"></path><path d="M609 47h20"></path><g class="terminal "><path d="M629 47h0"></path><path d="M742.5 47h0"></path><rect x="629" y="36" width="113.5" height="22"></rect><text x="685.75" y="51">PARTITION</text></g><path d="M742.5 47h20"></path></g></g><path d="M772.5 47h0"></path></g><path d="M772.5 47h20"></path></g><path d="M 792.5 47 h 20 m 0 -10 v 20"></path></g><defs><style type="text/css">path {
stroke-width: 1.25;
stroke: #9cc2e5;
fill: rgba(0, 0, 0, 0);
}
text {
text-anchor: middle;
fill: #404040;
font-family: Calibri, Arial, sans-serif;
}
g.terminal text {
font-weight: bold;
}
g.non-terminal rect {
stroke-width: 1;
stroke: #9cc2e5;
fill: rgba(255, 255, 255, 1);
}
g.terminal rect {
stroke-width: 1;
stroke: #9cc2e5;
fill: rgba(255, 255, 255, 1);
}</style></defs></svg>