<?xml version="1.0" encoding="UTF-8" standalone="no"?>
<!DOCTYPE svg PUBLIC "-//W3C//DTD SVG 1.1//EN" "http://www.w3.org/Graphics/SVG/1.1/DTD/svg11.dtd">
<svg class="railroad-diagram" width="1059.5" height="256" viewBox="0 0 1059.5 256" id="array" xmlns="http://www.w3.org/2000/svg" xmlns:xlink="http://www.w3.org/1999/xlink"><g transform="translate(.5 .5)"><g><path d="M20 37v20m0 -10h20"></path></g><g><path d="M40 47h0"></path><path d="M1019.5 47h0"></path><path d="M40 47h20"></path><g><path d="M60 47h241.75"></path><g><path d="M301.75 47h10"></path><path d="M747.75 47h10"></path><g><path d="M311.75 47h0"></path><path d="M431.25 47h0"></path><path d="M311.75 47a10 10 0 0 0 10 -10v-7a10 10 0 0 1 10 -10"></path><g><path d="M331.75 20h79.5"></path></g><path d="M411.25 20a10 10 0 0 1 10 10v7a10 10 0 0 0 10 10"></path><path d="M311.75 47h20"></path><g class="terminal "><path d="M331.75 47h0"></path><path d="M411.25 47h0"></path><rect x="331.75" y="36" width="79.5" height="22"></rect><text x="371.5" y="51">ARRAY</text></g><path d="M411.25 47h20"></path></g><path d="M431.25 47h10"></path><g class="terminal "><path d="M441.25 47h0"></path><path d="M580.25 47h0"></path><rect x="441.25" y="36" width="139" height="22"></rect><text x="510.75" y="51">[</text></g><path d="M580.25 47h10"></path><path d="M590.25 47h10"></path><g class="terminal "><path d="M600.25 47h0"></path><path d="M747.75 47h0"></path><rect x="600.25" y="36" width="147.5" height="22"></rect><text x="674" y="51">]</text></g></g><path d="M757.75 47h241.75"></path></g><path d="M999.5 47h20"></path><path d="M40 47a10 10 0 0 1 10 10v34a10 10 0 0 0 10 10"></path><g><path d="M60 101h42.5"></path><g><path d="M102.5 101h10"></path><path d="M947 101h10"></path><g><path d="M112.5 101h0"></path><path d="M232 101h0"></path><path d="M112.5 101a10 10 0 0 0 10 -10v-7a10 10 0 0 1 10 -10"></path><g><path d="M132.5 74h79.5"></path></g><path d="M212 74a10 10 0 0 1 10 10v7a10 10 0 0 0 10 10"></path><path d="M112.5 101h20"></path><g class="terminal "><path d="M132.5 101h0"></path><path d="M212 101h0"></path><rect x="132.5" y="90" width="79.5" height="22"></rect><text x="172.25" y="105">ARRAY</text></g><path d="M212 101h20"></path></g><path d="M232 101h10"></path><g class="terminal "><path d="M242 101h0"></path><path d="M381 101h0"></path><rect x="242" y="90" width="139" height="22"></rect><text x="311.5" y="105">[</text></g><path d="M381 101h10"></path><path d="M391 101h10"></path><g class="non-terminal "><path d="M401 101h0"></path><path d="M480.5 101h0"></path><rect x="401" y="90" width="79.5" height="22" rx="10" ry="10"></rect><text x="440.75" y="105">literal</text></g><path d="M480.5 101h10"></path><g><path d="M490.5 101h0"></path><path d="M789.5 101h0"></path><path d="M490.5 101a10 10 0 0 0 10 -10v-7a10 10 0 0 1 10 -10"></path><g><path d="M510.5 74h259"></path></g><path d="M769.5 74a10 10 0 0 1 10 10v7a10 10 0 0 0 10 10"></path><path d="M490.5 101h20"></path><g><path d="M510.5 101h0"></path><path d="M769.5 101h0"></path><path d="M510.5 101h10"></path><g><path d="M520.5 101h0"></path><path d="M759.5 101h0"></path><path d="M520.5 101h20"></path><g><path d="M540.5 101h0"></path><g><path d="M540.5 101h10"></path><path d="M729.5 101h10"></path><g class="terminal "><path d="M550.5 101h0"></path><path d="M630 101h0"></path><rect x="550.5" y="90" width="79.5" height="22"></rect><text x="590.25" y="105">,</text></g><path d="M630 101h10"></path><path d="M640 101h10"></path><g class="non-terminal "><path d="M650 101h0"></path><path d="M729.5 101h0"></path><rect x="650" y="90" width="79.5" height="22" rx="10" ry="10"></rect><text x="689.75" y="105">literal</text></g></g><path d="M739.5 101h0"></path></g><path d="M739.5 101h20"></path></g><path d="M759.5 101h10"></path><path d="M520.5 101a10 10 0 0 0 -10 10v7a10 10 0 0 0 10 10"></path><g><path d="M520.5 128h239"></path></g><path d="M759.5 128a10 10 0 0 0 10 -10v-7a10 10 0 0 0 -10 -10"></path></g><path d="M769.5 101h20"></path></g><path d="M789.5 101h10"></path><g class="terminal "><path d="M799.5 101h0"></path><path d="M947 101h0"></path><rect x="799.5" y="90" width="147.5" height="22"></rect><text x="873.25" y="105">]</text></g></g><path d="M957 101h42.5"></path></g><path d="M999.5 101a10 10 0 0 0 10 -10v-34a10 10 0 0 1 10 -10"></path><path d="M40 47a10 10 0 0 1 10 10v104a10 10 0 0 0 10 10"></path><g><path d="M60 171h0"></path><g><path d="M60 171h10"></path><path d="M989.5 171h10"></path><g><path d="M70 171h0"></path><path d="M189.5 171h0"></path><path d="M70 171a10 10 0 0 0 10 -10v-7a10 10 0 0 1 10 -10"></path><g><path d="M90 144h79.5"></path></g><path d="M169.5 144a10 10 0 0 1 10 10v7a10 10 0 0 0 10 10"></path><path d="M70 171h20"></path><g class="terminal "><path d="M90 171h0"></path><path d="M169.5 171h0"></path><rect x="90" y="160" width="79.5" height="22"></rect><text x="129.75" y="175">ARRAY</text></g><path d="M169.5 171h20"></path></g><path d="M189.5 171h10"></path><g class="terminal "><path d="M199.5 171h0"></path><path d="M338.5 171h0"></path><rect x="199.5" y="160" width="139" height="22"></rect><text x="269" y="175">[</text></g><path d="M338.5 171h10"></path><path d="M348.5 171h10"></path><g class="terminal "><path d="M358.5 171h0"></path><path d="M480.5 171h0"></path><rect x="358.5" y="160" width="122" height="22"></rect><text x="419.5" y="175">Name</text></g><path d="M480.5 171h10"></path><g><path d="M490.5 171h0"></path><path d="M832 171h0"></path><path d="M490.5 171a10 10 0 0 0 10 -10v-7a10 10 0 0 1 10 -10"></path><g><path d="M510.5 144h301.5"></path></g><path d="M812 144a10 10 0 0 1 10 10v7a10 10 0 0 0 10 10"></path><path d="M490.5 171h20"></path><g><path d="M510.5 171h0"></path><path d="M812 171h0"></path><path d="M510.5 171h10"></path><g><path d="M520.5 171h0"></path><path d="M802 171h0"></path><path d="M520.5 171h20"></path><g><path d="M540.5 171h0"></path><g><path d="M540.5 171h10"></path><path d="M772 171h10"></path><g class="terminal "><path d="M550.5 171h0"></path><path d="M630 171h0"></path><rect x="550.5" y="160" width="79.5" height="22"></rect><text x="590.25" y="175">,</text></g><path d="M630 171h10"></path><path d="M640 171h10"></path><g class="terminal "><path d="M650 171h0"></path><path d="M772 171h0"></path><rect x="650" y="160" width="122" height="22"></rect><text x="711" y="175">Name</text></g></g><path d="M782 171h0"></path></g><path d="M782 171h20"></path></g><path d="M802 171h10"></path><path d="M520.5 171a10 10 0 0 0 -10 10v7a10 10 0 0 0 10 10"></path><g><path d="M520.5 198h281.5"></path></g><path d="M802 198a10 10 0 0 0 10 -10v-7a10 10 0 0 0 -10 -10"></path></g><path d="M812 171h20"></path></g><path d="M832 171h10"></path><g class="terminal "><path d="M842 171h0"></path><path d="M989.5 171h0"></path><rect x="842" y="160" width="147.5" height="22"></rect><text x="915.75" y="175">]</text></g></g><path d="M999.5 171h0"></path></g><path d="M999.5 171a10 10 0 0 0 10 -10v-104a10 10 0 0 1 10 -10"></path><path d="M40 47a10 10 0 0 1 10 10v158a10 10 0 0 0 10 10"></path><g><path d="M60 225h90.5"></path><g><path d="M150.5 225h10"></path><path d="M899 225h10"></path><g class="terminal "><path d="M160.5 225h0"></path><path d="M240 225h0"></path><rect x="160.5" y="214" width="79.5" height="22"></rect><text x="200.25" y="229">RANGE</text></g><path d="M240 225h10"></path><path d="M250 225h10"></path><g class="terminal "><path d="M260 225h0"></path><path d="M399 225h0"></path><rect x="260" y="214" width="139" height="22"></rect><text x="329.5" y="229">[</text></g><path d="M399 225h10"></path><path d="M409 225h10"></path><g class="terminal "><path d="M419 225h0"></path><path d="M515.5 225h0"></path><rect x="419" y="214" width="96.5" height="22"></rect><text x="467.25" y="229">Number</text></g><path d="M515.5 225h10"></path><path d="M525.5 225h10"></path><g class="terminal "><path d="M535.5 225h0"></path><path d="M615 225h0"></path><rect x="535.5" y="214" width="79.5" height="22"></rect><text x="575.25" y="229">,</text></g><path d="M615 225h10"></path><path d="M625 225h10"></path><g class="terminal "><path d="M635 225h0"></path><path d="M731.5 225h0"></path><rect x="635" y="214" width="96.5" height="22"></rect><text x="683.25" y="229">Number</text></g><path d="M731.5 225h10"></path><path d="M741.5 225h10"></path><g class="terminal "><path d="M751.5 225h0"></path><path d="M899 225h0"></path><rect x="751.5" y="214" width="147.5" height="22"></rect><text x="825.25" y="229">]</text></g></g><path d="M909 225h90.5"></path></g><path d="M999.5 225a10 10 0 0 0 10 -10v-158a10 10 0 0 1 10 -10"></path></g><path d="M 1019.5 47 h 20 m 0 -10 v 20"></path></g><defs><style type="text/css">path {
stroke-width: 1.25;
stroke: #9cc2e5;
fill: rgba(0, 0, 0, 0);
}
text {
text-anchor: middle;
fill: #404040;
font-family: Calibri, Arial, sans-serif;
}
g.terminal text {
font-weight: bold;
}
g.non-terminal rect {
stroke-width: 1;
stroke: #9cc2e5;
fill: rgba(255, 255, 255, 1);
}
g.terminal rect {
stroke-width: 1;
stroke: #9cc2e5;
fill: rgba(255, 255, 255, 1);
}</style></defs></svg>