<?xml version="1.0" encoding="UTF-8" standalone="no"?>
<!DOCTYPE svg PUBLIC "-//W3C//DTD SVG 1.1//EN" "http://www.w3.org/Graphics/SVG/1.1/DTD/svg11.dtd">
<svg class="railroad-diagram" width="469.5" height="100" viewBox="0 0 469.5 100" id="call_stmt" xmlns="http://www.w3.org/2000/svg" xmlns:xlink="http://www.w3.org/1999/xlink"><g transform="translate(.5 .5)"><g><path d="M20 21v20m0 -10h20"></path></g><g><path d="M40 31h0"></path><path d="M429.5 31h0"></path><path d="M40 31h20"></path><g><path d="M60 31h0"></path><g><path d="M60 31h10"></path><path d="M399.5 31h10"></path><g class="terminal "><path d="M70 31h0"></path><path d="M141 31h0"></path><rect x="70" y="20" width="71" height="22"></rect><text x="105.5" y="35">CALL</text></g><path d="M141 31h10"></path><path d="M151 31h10"></path><g class="non-terminal "><path d="M161 31h0"></path><path d="M257.5 31h0"></path><rect x="161" y="20" width="96.5" height="22" rx="10" ry="10"></rect><text x="209.25" y="35">func_expr</text></g><path d="M257.5 31h10"></path><path d="M267.5 31h10"></path><g class="non-terminal "><path d="M277.5 31h0"></path><path d="M399.5 31h0"></path><rect x="277.5" y="20" width="122" height="22" rx="10" ry="10"></rect><text x="338.5" y="35">operation_io</text></g></g><path d="M409.5 31h0"></path></g><path d="M409.5 31h20"></path><path d="M40 31a10 10 0 0 1 10 10v18a10 10 0 0 0 10 10"></path><g><path d="M60 69h71"></path><g><path d="M131 69h10"></path><path d="M328.5 69h10"></path><g class="terminal "><path d="M141 69h0"></path><path d="M212 69h0"></path><rect x="141" y="58" width="71" height="22"></rect><text x="176.5" y="73">CALL</text></g><path d="M212 69h10"></path><path d="M222 69h10"></path><g class="non-terminal "><path d="M232 69h0"></path><path d="M328.5 69h0"></path><rect x="232" y="58" width="96.5" height="22" rx="10" ry="10"></rect><text x="280.25" y="73">func_expr</text></g></g><path d="M338.5 69h71"></path></g><path d="M409.5 69a10 10 0 0 0 10 -10v-18a10 10 0 0 1 10 -10"></path></g><path d="M 429.5 31 h 20 m 0 -10 v 20"></path></g><defs><style type="text/css">path {
stroke-width: 1.25;
stroke: #9cc2e5;
fill: rgba(0, 0, 0, 0);
}
text {
text-anchor: middle;
fill: #404040;
font-family: Calibri, Arial, sans-serif;
}
g.terminal text {
font-weight: bold;
}
g.non-terminal rect {
stroke-width: 1;
stroke: #9cc2e5;
fill: rgba(255, 255, 255, 1);
}
g.terminal rect {
stroke-width: 1;
stroke: #9cc2e5;
fill: rgba(255, 255, 255, 1);
}</style></defs></svg>