<?xml version="1.0" encoding="UTF-8" standalone="no"?>
<!DOCTYPE svg PUBLIC "-//W3C//DTD SVG 1.1//EN" "http://www.w3.org/Graphics/SVG/1.1/DTD/svg11.dtd">
<svg class="railroad-diagram" width="1253" height="148" viewBox="0 0 1253 148" id="columns_item" xmlns="http://www.w3.org/2000/svg" xmlns:xlink="http://www.w3.org/1999/xlink"><g transform="translate(.5 .5)"><g><path d="M20 37v20m0 -10h20"></path></g><g><path d="M40 47h0"></path><path d="M1213 47h0"></path><path d="M40 47h20"></path><g><path d="M60 47h0"></path><g><path d="M60 47h10"></path><path d="M1183 47h10"></path><g><path d="M70 47h0"></path><path d="M172.5 47h0"></path><path d="M70 47a10 10 0 0 0 10 -10v-7a10 10 0 0 1 10 -10"></path><g><path d="M90 20h62.5"></path></g><path d="M152.5 20a10 10 0 0 1 10 10v7a10 10 0 0 0 10 10"></path><path d="M70 47h20"></path><g class="terminal "><path d="M90 47h0"></path><path d="M152.5 47h0"></path><rect x="90" y="36" width="62.5" height="22"></rect><text x="121.25" y="51">SET</text></g><path d="M152.5 47h20"></path></g><path d="M172.5 47h10"></path><g class="non-terminal "><path d="M182.5 47h0"></path><path d="M304.5 47h0"></path><rect x="182.5" y="36" width="122" height="22" rx="10" ry="10"></rect><text x="243.5" y="51">type_columns</text></g><path d="M304.5 47h10"></path><g><path d="M314.5 47h0"></path><path d="M451 47h0"></path><path d="M314.5 47a10 10 0 0 0 10 -10v-7a10 10 0 0 1 10 -10"></path><g><path d="M334.5 20h96.5"></path></g><path d="M431 20a10 10 0 0 1 10 10v7a10 10 0 0 0 10 10"></path><path d="M314.5 47h20"></path><g class="terminal "><path d="M334.5 47h0"></path><path d="M431 47h0"></path><rect x="334.5" y="36" width="96.5" height="22"></rect><text x="382.75" y="51">COLUMNS</text></g><path d="M431 47h20"></path></g><path d="M451 47h10"></path><g class="terminal "><path d="M461 47h0"></path><path d="M566 47h0"></path><rect x="461" y="36" width="105" height="22"></rect><text x="513.5" y="51">(</text></g><path d="M566 47h10"></path><path d="M576 47h10"></path><g class="terminal "><path d="M586 47h0"></path><path d="M708 47h0"></path><rect x="586" y="36" width="122" height="22"></rect><text x="647" y="51">Name</text></g><path d="M708 47h10"></path><g><path d="M718 47h0"></path><path d="M1059.5 47h0"></path><path d="M718 47a10 10 0 0 0 10 -10v-7a10 10 0 0 1 10 -10"></path><g><path d="M738 20h301.5"></path></g><path d="M1039.5 20a10 10 0 0 1 10 10v7a10 10 0 0 0 10 10"></path><path d="M718 47h20"></path><g><path d="M738 47h0"></path><path d="M1039.5 47h0"></path><path d="M738 47h10"></path><g><path d="M748 47h0"></path><path d="M1029.5 47h0"></path><path d="M748 47h20"></path><g><path d="M768 47h0"></path><g><path d="M768 47h10"></path><path d="M999.5 47h10"></path><g class="terminal "><path d="M778 47h0"></path><path d="M857.5 47h0"></path><rect x="778" y="36" width="79.5" height="22"></rect><text x="817.75" y="51">,</text></g><path d="M857.5 47h10"></path><path d="M867.5 47h10"></path><g class="terminal "><path d="M877.5 47h0"></path><path d="M999.5 47h0"></path><rect x="877.5" y="36" width="122" height="22"></rect><text x="938.5" y="51">Name</text></g></g><path d="M1009.5 47h0"></path></g><path d="M1009.5 47h20"></path></g><path d="M1029.5 47h10"></path><path d="M748 47a10 10 0 0 0 -10 10v7a10 10 0 0 0 10 10"></path><g><path d="M748 74h281.5"></path></g><path d="M1029.5 74a10 10 0 0 0 10 -10v-7a10 10 0 0 0 -10 -10"></path></g><path d="M1039.5 47h20"></path></g><path d="M1059.5 47h10"></path><g class="terminal "><path d="M1069.5 47h0"></path><path d="M1183 47h0"></path><rect x="1069.5" y="36" width="113.5" height="22"></rect><text x="1126.25" y="51">)</text></g></g><path d="M1193 47h0"></path></g><path d="M1193 47h20"></path><path d="M40 47a10 10 0 0 1 10 10v50a10 10 0 0 0 10 10"></path><g><path d="M60 117h187.75"></path><g><path d="M247.75 117h10"></path><path d="M995.25 117h10"></path><g><path d="M257.75 117h0"></path><path d="M360.25 117h0"></path><path d="M257.75 117a10 10 0 0 0 10 -10v-7a10 10 0 0 1 10 -10"></path><g><path d="M277.75 90h62.5"></path></g><path d="M340.25 90a10 10 0 0 1 10 10v7a10 10 0 0 0 10 10"></path><path d="M257.75 117h20"></path><g class="terminal "><path d="M277.75 117h0"></path><path d="M340.25 117h0"></path><rect x="277.75" y="106" width="62.5" height="22"></rect><text x="309" y="121">SET</text></g><path d="M340.25 117h20"></path></g><path d="M360.25 117h10"></path><g class="non-terminal "><path d="M370.25 117h0"></path><path d="M492.25 117h0"></path><rect x="370.25" y="106" width="122" height="22" rx="10" ry="10"></rect><text x="431.25" y="121">type_columns</text></g><path d="M492.25 117h10"></path><g><path d="M502.25 117h0"></path><path d="M638.75 117h0"></path><path d="M502.25 117a10 10 0 0 0 10 -10v-7a10 10 0 0 1 10 -10"></path><g><path d="M522.25 90h96.5"></path></g><path d="M618.75 90a10 10 0 0 1 10 10v7a10 10 0 0 0 10 10"></path><path d="M502.25 117h20"></path><g class="terminal "><path d="M522.25 117h0"></path><path d="M618.75 117h0"></path><rect x="522.25" y="106" width="96.5" height="22"></rect><text x="570.5" y="121">COLUMNS</text></g><path d="M618.75 117h20"></path></g><path d="M638.75 117h10"></path><g class="terminal "><path d="M648.75 117h0"></path><path d="M753.75 117h0"></path><rect x="648.75" y="106" width="105" height="22"></rect><text x="701.25" y="121">(</text></g><path d="M753.75 117h10"></path><path d="M763.75 117h10"></path><g class="non-terminal "><path d="M773.75 117h0"></path><path d="M861.75 117h0"></path><rect x="773.75" y="106" width="88" height="22" rx="10" ry="10"></rect><text x="817.75" y="121">var_name</text></g><path d="M861.75 117h10"></path><path d="M871.75 117h10"></path><g class="terminal "><path d="M881.75 117h0"></path><path d="M995.25 117h0"></path><rect x="881.75" y="106" width="113.5" height="22"></rect><text x="938.5" y="121">)</text></g></g><path d="M1005.25 117h187.75"></path></g><path d="M1193 117a10 10 0 0 0 10 -10v-50a10 10 0 0 1 10 -10"></path></g><path d="M 1213 47 h 20 m 0 -10 v 20"></path></g><defs><style type="text/css">path {
stroke-width: 1.25;
stroke: #9cc2e5;
fill: rgba(0, 0, 0, 0);
}
text {
text-anchor: middle;
fill: #404040;
font-family: Calibri, Arial, sans-serif;
}
g.terminal text {
font-weight: bold;
}
g.non-terminal rect {
stroke-width: 1;
stroke: #9cc2e5;
fill: rgba(255, 255, 255, 1);
}
g.terminal rect {
stroke-width: 1;
stroke: #9cc2e5;
fill: rgba(255, 255, 255, 1);
}</style></defs></svg>