<?xml version="1.0" encoding="UTF-8" standalone="no"?>
<!DOCTYPE svg PUBLIC "-//W3C//DTD SVG 1.1//EN" "http://www.w3.org/Graphics/SVG/1.1/DTD/svg11.dtd">
<svg class="railroad-diagram" width="976" height="78" viewBox="0 0 976 78" id="copy_stmt" xmlns="http://www.w3.org/2000/svg" xmlns:xlink="http://www.w3.org/1999/xlink"><g transform="translate(.5 .5)"><g><path d="M20 37v20m0 -10h20"></path></g><g><path d="M40 47h0"></path><path d="M936 47h0"></path><path d="M40 47h20"></path><g><path d="M60 47h0"></path><g><path d="M60 47h10"></path><path d="M906 47h10"></path><g class="terminal "><path d="M70 47h0"></path><path d="M141 47h0"></path><rect x="70" y="36" width="71" height="22"></rect><text x="105.5" y="51">COPY</text></g><path d="M141 47h10"></path><g><path d="M151 47h0"></path><path d="M245 47h0"></path><path d="M151 47a10 10 0 0 0 10 -10v-7a10 10 0 0 1 10 -10"></path><g><path d="M171 20h54"></path></g><path d="M225 20a10 10 0 0 1 10 10v7a10 10 0 0 0 10 10"></path><path d="M151 47h20"></path><g class="terminal "><path d="M171 47h0"></path><path d="M225 47h0"></path><rect x="171" y="36" width="54" height="22"></rect><text x="198" y="51">DS</text></g><path d="M225 47h20"></path></g><path d="M245 47h10"></path><g class="non-terminal "><path d="M255 47h0"></path><path d="M334.5 47h0"></path><rect x="255" y="36" width="79.5" height="22" rx="10" ry="10"></rect><text x="294.75" y="51">ds_name</text></g><path d="M334.5 47h10"></path><g><path d="M344.5 47h0"></path><path d="M455.5 47h0"></path><path d="M344.5 47a10 10 0 0 0 10 -10v-7a10 10 0 0 1 10 -10"></path><g><path d="M364.5 20h71"></path></g><path d="M435.5 20a10 10 0 0 1 10 10v7a10 10 0 0 0 10 10"></path><path d="M344.5 47h20"></path><g class="terminal "><path d="M364.5 47h0"></path><path d="M435.5 47h0"></path><rect x="364.5" y="36" width="71" height="22"></rect><text x="400" y="51">*</text></g><path d="M435.5 47h20"></path></g><g><path d="M455.5 47h0"></path><path d="M583.5 47h0"></path><path d="M455.5 47a10 10 0 0 0 10 -10v-7a10 10 0 0 1 10 -10"></path><g><path d="M475.5 20h88"></path></g><path d="M563.5 20a10 10 0 0 1 10 10v7a10 10 0 0 0 10 10"></path><path d="M455.5 47h20"></path><g class="non-terminal "><path d="M475.5 47h0"></path><path d="M563.5 47h0"></path><rect x="475.5" y="36" width="88" height="22" rx="10" ry="10"></rect><text x="519.5" y="51">ds_parts</text></g><path d="M563.5 47h20"></path></g><path d="M583.5 47h10"></path><g class="non-terminal "><path d="M593.5 47h0"></path><path d="M690 47h0"></path><rect x="593.5" y="36" width="96.5" height="22" rx="10" ry="10"></rect><text x="641.75" y="51">func_expr</text></g><path d="M690 47h10"></path><path d="M700 47h10"></path><g class="terminal "><path d="M710 47h0"></path><path d="M781 47h0"></path><rect x="710" y="36" width="71" height="22"></rect><text x="745.5" y="51">INTO</text></g><path d="M781 47h10"></path><path d="M791 47h10"></path><g class="non-terminal "><path d="M801 47h0"></path><path d="M906 47h0"></path><rect x="801" y="36" width="105" height="22" rx="10" ry="10"></rect><text x="853.5" y="51">expression</text></g></g><path d="M916 47h0"></path></g><path d="M916 47h20"></path></g><path d="M 936 47 h 20 m 0 -10 v 20"></path></g><defs><style type="text/css">path {
stroke-width: 1.25;
stroke: #9cc2e5;
fill: rgba(0, 0, 0, 0);
}
text {
text-anchor: middle;
fill: #404040;
font-family: Calibri, Arial, sans-serif;
}
g.terminal text {
font-weight: bold;
}
g.non-terminal rect {
stroke-width: 1;
stroke: #9cc2e5;
fill: rgba(255, 255, 255, 1);
}
g.terminal rect {
stroke-width: 1;
stroke: #9cc2e5;
fill: rgba(255, 255, 255, 1);
}</style></defs></svg>