<?xml version="1.0" encoding="UTF-8" standalone="no"?>
<!DOCTYPE svg PUBLIC "-//W3C//DTD SVG 1.1//EN" "http://www.w3.org/Graphics/SVG/1.1/DTD/svg11.dtd">
<svg class="railroad-diagram" width="2158.5" height="110" viewBox="0 0 2158.5 110" id="create_proc" xmlns="http://www.w3.org/2000/svg" xmlns:xlink="http://www.w3.org/1999/xlink"><g transform="translate(.5 .5)"><g><path d="M20 53v20m0 -10h20"></path></g><g><path d="M40 63h0"></path><path d="M2118.5 63h0"></path><path d="M40 63h20"></path><g><path d="M60 63h0"></path><g><path d="M60 63h10"></path><path d="M2088.5 63h10"></path><g><path d="M70 63h0"></path><path d="M538.5 63h0"></path><path d="M70 63a10 10 0 0 0 10 -10v-23a10 10 0 0 1 10 -10"></path><g><path d="M90 20h428.5"></path></g><path d="M518.5 20a10 10 0 0 1 10 10v23a10 10 0 0 0 10 10"></path><path d="M70 63h20"></path><g><path d="M90 63h0"></path><path d="M518.5 63h0"></path><path d="M90 63h20"></path><g><path d="M110 63h0"></path><g><path d="M110 63h10"></path><path d="M488.5 63h10"></path><g class="terminal "><path d="M120 63h0"></path><path d="M208 63h0"></path><rect x="120" y="52" width="88" height="22"></rect><text x="164" y="67">CREATE</text></g><path d="M208 63h10"></path><g><path d="M218 63h0"></path><path d="M488.5 63h0"></path><path d="M218 63a10 10 0 0 0 10 -10v-7a10 10 0 0 1 10 -10"></path><g><path d="M238 36h230.5"></path></g><path d="M468.5 36a10 10 0 0 1 10 10v7a10 10 0 0 0 10 10"></path><path d="M218 63h20"></path><g><path d="M238 63h0"></path><path d="M468.5 63h0"></path><path d="M238 63h20"></path><g><path d="M258 63h0"></path><g><path d="M258 63h10"></path><path d="M438.5 63h10"></path><g class="terminal "><path d="M268 63h0"></path><path d="M322 63h0"></path><rect x="268" y="52" width="54" height="22"></rect><text x="295" y="67">OR</text></g><path d="M322 63h10"></path><path d="M332 63h10"></path><g class="terminal "><path d="M342 63h0"></path><path d="M438.5 63h0"></path><rect x="342" y="52" width="96.5" height="22"></rect><text x="390.25" y="67">REPLACE</text></g></g><path d="M448.5 63h0"></path></g><path d="M448.5 63h20"></path></g><path d="M468.5 63h20"></path></g></g><path d="M498.5 63h0"></path></g><path d="M498.5 63h20"></path></g><path d="M518.5 63h20"></path></g><path d="M538.5 63h10"></path><g class="terminal "><path d="M548.5 63h0"></path><path d="M662 63h0"></path><rect x="548.5" y="52" width="113.5" height="22"></rect><text x="605.25" y="67">PROCEDURE</text></g><path d="M662 63h10"></path><path d="M672 63h10"></path><g class="non-terminal "><path d="M682 63h0"></path><path d="M736 63h0"></path><rect x="682" y="52" width="54" height="22" rx="10" ry="10"></rect><text x="709" y="67">func</text></g><path d="M736 63h10"></path><g><path d="M746 63h0"></path><path d="M1534 63h0"></path><path d="M746 63a10 10 0 0 0 10 -10v-23a10 10 0 0 1 10 -10"></path><g><path d="M766 20h748"></path></g><path d="M1514 20a10 10 0 0 1 10 10v23a10 10 0 0 0 10 10"></path><path d="M746 63h20"></path><g><path d="M766 63h0"></path><path d="M1514 63h0"></path><path d="M766 63h20"></path><g><path d="M786 63h0"></path><g><path d="M786 63h10"></path><path d="M1484 63h10"></path><g class="terminal "><path d="M796 63h0"></path><path d="M901 63h0"></path><rect x="796" y="52" width="105" height="22"></rect><text x="848.5" y="67">(</text></g><path d="M901 63h10"></path><path d="M911 63h10"></path><g class="non-terminal "><path d="M921 63h0"></path><path d="M1026 63h0"></path><rect x="921" y="52" width="105" height="22" rx="10" ry="10"></rect><text x="973.5" y="67">proc_param</text></g><path d="M1026 63h10"></path><g><path d="M1036 63h0"></path><path d="M1360.5 63h0"></path><path d="M1036 63a10 10 0 0 0 10 -10v-7a10 10 0 0 1 10 -10"></path><g><path d="M1056 36h284.5"></path></g><path d="M1340.5 36a10 10 0 0 1 10 10v7a10 10 0 0 0 10 10"></path><path d="M1036 63h20"></path><g><path d="M1056 63h0"></path><path d="M1340.5 63h0"></path><path d="M1056 63h10"></path><g><path d="M1066 63h0"></path><path d="M1330.5 63h0"></path><path d="M1066 63h20"></path><g><path d="M1086 63h0"></path><g><path d="M1086 63h10"></path><path d="M1300.5 63h10"></path><g class="terminal "><path d="M1096 63h0"></path><path d="M1175.5 63h0"></path><rect x="1096" y="52" width="79.5" height="22"></rect><text x="1135.75" y="67">,</text></g><path d="M1175.5 63h10"></path><path d="M1185.5 63h10"></path><g class="non-terminal "><path d="M1195.5 63h0"></path><path d="M1300.5 63h0"></path><rect x="1195.5" y="52" width="105" height="22" rx="10" ry="10"></rect><text x="1248" y="67">proc_param</text></g></g><path d="M1310.5 63h0"></path></g><path d="M1310.5 63h20"></path></g><path d="M1330.5 63h10"></path><path d="M1066 63a10 10 0 0 0 -10 10v7a10 10 0 0 0 10 10"></path><g><path d="M1066 90h264.5"></path></g><path d="M1330.5 90a10 10 0 0 0 10 -10v-7a10 10 0 0 0 -10 -10"></path></g><path d="M1340.5 63h20"></path></g><path d="M1360.5 63h10"></path><g class="terminal "><path d="M1370.5 63h0"></path><path d="M1484 63h0"></path><rect x="1370.5" y="52" width="113.5" height="22"></rect><text x="1427.25" y="67">)</text></g></g><path d="M1494 63h0"></path></g><path d="M1494 63h20"></path></g><path d="M1514 63h20"></path></g><g><path d="M1534 63h0"></path><path d="M1628 63h0"></path><path d="M1534 63a10 10 0 0 0 10 -10v-7a10 10 0 0 1 10 -10"></path><g><path d="M1554 36h54"></path></g><path d="M1608 36a10 10 0 0 1 10 10v7a10 10 0 0 0 10 10"></path><path d="M1534 63h20"></path><g class="terminal "><path d="M1554 63h0"></path><path d="M1608 63h0"></path><rect x="1554" y="52" width="54" height="22"></rect><text x="1581" y="67">AS</text></g><path d="M1608 63h20"></path></g><path d="M1628 63h10"></path><g class="terminal "><path d="M1638 63h0"></path><path d="M1717.5 63h0"></path><rect x="1638" y="52" width="79.5" height="22"></rect><text x="1677.75" y="67">BEGIN</text></g><path d="M1717.5 63h10"></path><path d="M1727.5 63h10"></path><g class="non-terminal "><path d="M1737.5 63h0"></path><path d="M1842.5 63h0"></path><rect x="1737.5" y="52" width="105" height="22" rx="10" ry="10"></rect><text x="1790" y="67">statements</text></g><path d="M1842.5 63h10"></path><path d="M1852.5 63h10"></path><g class="terminal "><path d="M1862.5 63h0"></path><path d="M1925 63h0"></path><rect x="1862.5" y="52" width="62.5" height="22"></rect><text x="1893.75" y="67">END</text></g><path d="M1925 63h10"></path><g><path d="M1935 63h0"></path><path d="M2088.5 63h0"></path><path d="M1935 63a10 10 0 0 0 10 -10v-7a10 10 0 0 1 10 -10"></path><g><path d="M1955 36h113.5"></path></g><path d="M2068.5 36a10 10 0 0 1 10 10v7a10 10 0 0 0 10 10"></path><path d="M1935 63h20"></path><g class="terminal "><path d="M1955 63h0"></path><path d="M2068.5 63h0"></path><rect x="1955" y="52" width="113.5" height="22"></rect><text x="2011.75" y="67">PROCEDURE</text></g><path d="M2068.5 63h20"></path></g></g><path d="M2098.5 63h0"></path></g><path d="M2098.5 63h20"></path></g><path d="M 2118.5 63 h 20 m 0 -10 v 20"></path></g><defs><style type="text/css">path {
stroke-width: 1.25;
stroke: #9cc2e5;
fill: rgba(0, 0, 0, 0);
}
text {
text-anchor: middle;
fill: #404040;
font-family: Calibri, Arial, sans-serif;
}
g.terminal text {
font-weight: bold;
}
g.non-terminal rect {
stroke-width: 1;
stroke: #9cc2e5;
fill: rgba(255, 255, 255, 1);
}
g.terminal rect {
stroke-width: 1;
stroke: #9cc2e5;
fill: rgba(255, 255, 255, 1);
}</style></defs></svg>