<?xml version="1.0" encoding="UTF-8" standalone="no"?>
<!DOCTYPE svg PUBLIC "-//W3C//DTD SVG 1.1//EN" "http://www.w3.org/Graphics/SVG/1.1/DTD/svg11.dtd">
<svg class="railroad-diagram" width="1221" height="154" viewBox="0 0 1221 154" id="create_stmt" xmlns="http://www.w3.org/2000/svg" xmlns:xlink="http://www.w3.org/1999/xlink"><g transform="translate(.5 .5)"><g><path d="M20 37v20m0 -10h20"></path></g><g><path d="M40 47h0"></path><path d="M1181 47h0"></path><path d="M40 47h20"></path><g><path d="M60 47h0"></path><g><path d="M60 47h10"></path><path d="M1151 47h10"></path><g class="terminal "><path d="M70 47h0"></path><path d="M158 47h0"></path><rect x="70" y="36" width="88" height="22"></rect><text x="114" y="51">CREATE</text></g><path d="M158 47h10"></path><g><path d="M168 47h0"></path><path d="M262 47h0"></path><path d="M168 47a10 10 0 0 0 10 -10v-7a10 10 0 0 1 10 -10"></path><g><path d="M188 20h54"></path></g><path d="M242 20a10 10 0 0 1 10 10v7a10 10 0 0 0 10 10"></path><path d="M168 47h20"></path><g class="terminal "><path d="M188 47h0"></path><path d="M242 47h0"></path><rect x="188" y="36" width="54" height="22"></rect><text x="215" y="51">DS</text></g><path d="M242 47h20"></path></g><path d="M262 47h10"></path><g class="non-terminal "><path d="M272 47h0"></path><path d="M351.5 47h0"></path><rect x="272" y="36" width="79.5" height="22" rx="10" ry="10"></rect><text x="311.75" y="51">ds_name</text></g><path d="M351.5 47h10"></path><path d="M361.5 47h10"></path><g class="non-terminal "><path d="M371.5 47h0"></path><path d="M468 47h0"></path><rect x="371.5" y="36" width="96.5" height="22" rx="10" ry="10"></rect><text x="419.75" y="51">func_expr</text></g><path d="M468 47h10"></path><path d="M478 47h10"></path><g class="terminal "><path d="M488 47h0"></path><path d="M559 47h0"></path><rect x="488" y="36" width="71" height="22"></rect><text x="523.5" y="51">FROM</text></g><path d="M559 47h10"></path><path d="M569 47h10"></path><g class="non-terminal "><path d="M579 47h0"></path><path d="M684 47h0"></path><rect x="579" y="36" width="105" height="22" rx="10" ry="10"></rect><text x="631.5" y="51">expression</text></g><path d="M684 47h10"></path><g><path d="M694 47h0"></path><path d="M822 47h0"></path><path d="M694 47a10 10 0 0 0 10 -10v-7a10 10 0 0 1 10 -10"></path><g><path d="M714 20h88"></path></g><path d="M802 20a10 10 0 0 1 10 10v7a10 10 0 0 0 10 10"></path><path d="M694 47h20"></path><g class="non-terminal "><path d="M714 47h0"></path><path d="M802 47h0"></path><rect x="714" y="36" width="88" height="22" rx="10" ry="10"></rect><text x="758" y="51">ds_parts</text></g><path d="M802 47h20"></path></g><g><path d="M822 47h0"></path><path d="M1151 47h0"></path><path d="M822 47a10 10 0 0 0 10 -10v-7a10 10 0 0 1 10 -10"></path><g><path d="M842 20h289"></path></g><path d="M1131 20a10 10 0 0 1 10 10v7a10 10 0 0 0 10 10"></path><path d="M822 47h20"></path><g><path d="M842 47h0"></path><path d="M1131 47h0"></path><path d="M842 47h20"></path><g><path d="M862 47h0"></path><g><path d="M862 47h10"></path><path d="M1101 47h10"></path><g class="terminal "><path d="M872 47h0"></path><path d="M926 47h0"></path><rect x="872" y="36" width="54" height="22"></rect><text x="899" y="51">BY</text></g><path d="M926 47h10"></path><g><path d="M936 47h0"></path><path d="M1101 47h0"></path><path d="M936 47h20"></path><g><path d="M956 47h0"></path><g><path d="M956 47h10"></path><path d="M1071 47h10"></path><g class="terminal "><path d="M966 47h0"></path><path d="M1071 47h0"></path><rect x="966" y="36" width="105" height="22"></rect><text x="1018.5" y="51">HASHCODE</text></g></g><path d="M1081 47h0"></path></g><path d="M1081 47h20"></path><path d="M936 47a10 10 0 0 1 10 10v18a10 10 0 0 0 10 10"></path><g><path d="M956 85h8.5"></path><g><path d="M964.5 85h10"></path><path d="M1062.5 85h10"></path><g class="terminal "><path d="M974.5 85h0"></path><path d="M1062.5 85h0"></path><rect x="974.5" y="74" width="88" height="22"></rect><text x="1018.5" y="89">SOURCE</text></g></g><path d="M1072.5 85h8.5"></path></g><path d="M1081 85a10 10 0 0 0 10 -10v-18a10 10 0 0 1 10 -10"></path><path d="M936 47a10 10 0 0 1 10 10v56a10 10 0 0 0 10 10"></path><g><path d="M956 123h8.5"></path><g><path d="M964.5 123h10"></path><path d="M1062.5 123h10"></path><g class="terminal "><path d="M974.5 123h0"></path><path d="M1062.5 123h0"></path><rect x="974.5" y="112" width="88" height="22"></rect><text x="1018.5" y="127">RANDOM</text></g></g><path d="M1072.5 123h8.5"></path></g><path d="M1081 123a10 10 0 0 0 10 -10v-56a10 10 0 0 1 10 -10"></path></g></g><path d="M1111 47h0"></path></g><path d="M1111 47h20"></path></g><path d="M1131 47h20"></path></g></g><path d="M1161 47h0"></path></g><path d="M1161 47h20"></path></g><path d="M 1181 47 h 20 m 0 -10 v 20"></path></g><defs><style type="text/css">path {
stroke-width: 1.25;
stroke: #9cc2e5;
fill: rgba(0, 0, 0, 0);
}
text {
text-anchor: middle;
fill: #404040;
font-family: Calibri, Arial, sans-serif;
}
g.terminal text {
font-weight: bold;
}
g.non-terminal rect {
stroke-width: 1;
stroke: #9cc2e5;
fill: rgba(255, 255, 255, 1);
}
g.terminal rect {
stroke-width: 1;
stroke: #9cc2e5;
fill: rgba(255, 255, 255, 1);
}</style></defs></svg>