<?xml version="1.0" encoding="UTF-8" standalone="no"?>
<!DOCTYPE svg PUBLIC "-//W3C//DTD SVG 1.1//EN" "http://www.w3.org/Graphics/SVG/1.1/DTD/svg11.dtd">
<svg class="railroad-diagram" width="2319.5" height="148" viewBox="0 0 2319.5 148" id="create_func" xmlns="http://www.w3.org/2000/svg" xmlns:xlink="http://www.w3.org/1999/xlink"><g transform="translate(.5 .5)"><g><path d="M20 53v20m0 -10h20"></path></g><g><path d="M40 63h0"></path><path d="M2279.5 63h0"></path><path d="M40 63h20"></path><g><path d="M60 63h0"></path><g><path d="M60 63h10"></path><path d="M2249.5 63h10"></path><g><path d="M70 63h0"></path><path d="M538.5 63h0"></path><path d="M70 63a10 10 0 0 0 10 -10v-23a10 10 0 0 1 10 -10"></path><g><path d="M90 20h428.5"></path></g><path d="M518.5 20a10 10 0 0 1 10 10v23a10 10 0 0 0 10 10"></path><path d="M70 63h20"></path><g><path d="M90 63h0"></path><path d="M518.5 63h0"></path><path d="M90 63h20"></path><g><path d="M110 63h0"></path><g><path d="M110 63h10"></path><path d="M488.5 63h10"></path><g class="terminal "><path d="M120 63h0"></path><path d="M208 63h0"></path><rect x="120" y="52" width="88" height="22"></rect><text x="164" y="67">CREATE</text></g><path d="M208 63h10"></path><g><path d="M218 63h0"></path><path d="M488.5 63h0"></path><path d="M218 63a10 10 0 0 0 10 -10v-7a10 10 0 0 1 10 -10"></path><g><path d="M238 36h230.5"></path></g><path d="M468.5 36a10 10 0 0 1 10 10v7a10 10 0 0 0 10 10"></path><path d="M218 63h20"></path><g><path d="M238 63h0"></path><path d="M468.5 63h0"></path><path d="M238 63h20"></path><g><path d="M258 63h0"></path><g><path d="M258 63h10"></path><path d="M438.5 63h10"></path><g class="terminal "><path d="M268 63h0"></path><path d="M322 63h0"></path><rect x="268" y="52" width="54" height="22"></rect><text x="295" y="67">OR</text></g><path d="M322 63h10"></path><path d="M332 63h10"></path><g class="terminal "><path d="M342 63h0"></path><path d="M438.5 63h0"></path><rect x="342" y="52" width="96.5" height="22"></rect><text x="390.25" y="67">REPLACE</text></g></g><path d="M448.5 63h0"></path></g><path d="M448.5 63h20"></path></g><path d="M468.5 63h20"></path></g></g><path d="M498.5 63h0"></path></g><path d="M498.5 63h20"></path></g><path d="M518.5 63h20"></path></g><path d="M538.5 63h10"></path><g class="terminal "><path d="M548.5 63h0"></path><path d="M653.5 63h0"></path><rect x="548.5" y="52" width="105" height="22"></rect><text x="601" y="67">FUNCTION</text></g><path d="M653.5 63h10"></path><path d="M663.5 63h10"></path><g class="non-terminal "><path d="M673.5 63h0"></path><path d="M727.5 63h0"></path><rect x="673.5" y="52" width="54" height="22" rx="10" ry="10"></rect><text x="700.5" y="67">func</text></g><path d="M727.5 63h10"></path><g><path d="M737.5 63h0"></path><path d="M1525.5 63h0"></path><path d="M737.5 63a10 10 0 0 0 10 -10v-23a10 10 0 0 1 10 -10"></path><g><path d="M757.5 20h748"></path></g><path d="M1505.5 20a10 10 0 0 1 10 10v23a10 10 0 0 0 10 10"></path><path d="M737.5 63h20"></path><g><path d="M757.5 63h0"></path><path d="M1505.5 63h0"></path><path d="M757.5 63h20"></path><g><path d="M777.5 63h0"></path><g><path d="M777.5 63h10"></path><path d="M1475.5 63h10"></path><g class="terminal "><path d="M787.5 63h0"></path><path d="M892.5 63h0"></path><rect x="787.5" y="52" width="105" height="22"></rect><text x="840" y="67">(</text></g><path d="M892.5 63h10"></path><path d="M902.5 63h10"></path><g class="non-terminal "><path d="M912.5 63h0"></path><path d="M1017.5 63h0"></path><rect x="912.5" y="52" width="105" height="22" rx="10" ry="10"></rect><text x="965" y="67">proc_param</text></g><path d="M1017.5 63h10"></path><g><path d="M1027.5 63h0"></path><path d="M1352 63h0"></path><path d="M1027.5 63a10 10 0 0 0 10 -10v-7a10 10 0 0 1 10 -10"></path><g><path d="M1047.5 36h284.5"></path></g><path d="M1332 36a10 10 0 0 1 10 10v7a10 10 0 0 0 10 10"></path><path d="M1027.5 63h20"></path><g><path d="M1047.5 63h0"></path><path d="M1332 63h0"></path><path d="M1047.5 63h10"></path><g><path d="M1057.5 63h0"></path><path d="M1322 63h0"></path><path d="M1057.5 63h20"></path><g><path d="M1077.5 63h0"></path><g><path d="M1077.5 63h10"></path><path d="M1292 63h10"></path><g class="terminal "><path d="M1087.5 63h0"></path><path d="M1167 63h0"></path><rect x="1087.5" y="52" width="79.5" height="22"></rect><text x="1127.25" y="67">,</text></g><path d="M1167 63h10"></path><path d="M1177 63h10"></path><g class="non-terminal "><path d="M1187 63h0"></path><path d="M1292 63h0"></path><rect x="1187" y="52" width="105" height="22" rx="10" ry="10"></rect><text x="1239.5" y="67">proc_param</text></g></g><path d="M1302 63h0"></path></g><path d="M1302 63h20"></path></g><path d="M1322 63h10"></path><path d="M1057.5 63a10 10 0 0 0 -10 10v7a10 10 0 0 0 10 10"></path><g><path d="M1057.5 90h264.5"></path></g><path d="M1322 90a10 10 0 0 0 10 -10v-7a10 10 0 0 0 -10 -10"></path></g><path d="M1332 63h20"></path></g><path d="M1352 63h10"></path><g class="terminal "><path d="M1362 63h0"></path><path d="M1475.5 63h0"></path><rect x="1362" y="52" width="113.5" height="22"></rect><text x="1418.75" y="67">)</text></g></g><path d="M1485.5 63h0"></path></g><path d="M1485.5 63h20"></path></g><path d="M1505.5 63h20"></path></g><g><path d="M1525.5 63h0"></path><path d="M1653.5 63h0"></path><path d="M1525.5 63a10 10 0 0 0 10 -10v-7a10 10 0 0 1 10 -10"></path><g><path d="M1545.5 36h88"></path></g><path d="M1633.5 36a10 10 0 0 1 10 10v7a10 10 0 0 0 10 10"></path><path d="M1525.5 63h20"></path><g class="terminal "><path d="M1545.5 63h0"></path><path d="M1633.5 63h0"></path><rect x="1545.5" y="52" width="88" height="22"></rect><text x="1589.5" y="67">RECORD</text></g><path d="M1633.5 63h20"></path></g><g><path d="M1653.5 63h0"></path><path d="M1747.5 63h0"></path><path d="M1653.5 63a10 10 0 0 0 10 -10v-7a10 10 0 0 1 10 -10"></path><g><path d="M1673.5 36h54"></path></g><path d="M1727.5 36a10 10 0 0 1 10 10v7a10 10 0 0 0 10 10"></path><path d="M1653.5 63h20"></path><g class="terminal "><path d="M1673.5 63h0"></path><path d="M1727.5 63h0"></path><rect x="1673.5" y="52" width="54" height="22"></rect><text x="1700.5" y="67">AS</text></g><path d="M1727.5 63h20"></path></g><g><path d="M1747.5 63h0"></path><path d="M2249.5 63h0"></path><path d="M1747.5 63h20"></path><g><path d="M1767.5 63h99.5"></path><g><path d="M1867 63h10"></path><path d="M2120 63h10"></path><g><path d="M1877 63h0"></path><path d="M2005 63h0"></path><path d="M1877 63a10 10 0 0 0 10 -10v-7a10 10 0 0 1 10 -10"></path><g><path d="M1897 36h88"></path></g><path d="M1985 36a10 10 0 0 1 10 10v7a10 10 0 0 0 10 10"></path><path d="M1877 63h20"></path><g class="terminal "><path d="M1897 63h0"></path><path d="M1985 63h0"></path><rect x="1897" y="52" width="88" height="22"></rect><text x="1941" y="67">RETURN</text></g><path d="M1985 63h20"></path></g><path d="M2005 63h10"></path><g class="non-terminal "><path d="M2015 63h0"></path><path d="M2120 63h0"></path><rect x="2015" y="52" width="105" height="22" rx="10" ry="10"></rect><text x="2067.5" y="67">expression</text></g></g><path d="M2130 63h99.5"></path></g><path d="M2229.5 63h20"></path><path d="M1747.5 63a10 10 0 0 1 10 10v34a10 10 0 0 0 10 10"></path><g><path d="M1767.5 117h0"></path><g><path d="M1767.5 117h10"></path><path d="M2219.5 117h10"></path><g class="terminal "><path d="M1777.5 117h0"></path><path d="M1857 117h0"></path><rect x="1777.5" y="106" width="79.5" height="22"></rect><text x="1817.25" y="121">BEGIN</text></g><path d="M1857 117h10"></path><path d="M1867 117h10"></path><g class="non-terminal "><path d="M1877 117h0"></path><path d="M1982 117h0"></path><rect x="1877" y="106" width="105" height="22" rx="10" ry="10"></rect><text x="1929.5" y="121">func_stmts</text></g><path d="M1982 117h10"></path><path d="M1992 117h10"></path><g class="terminal "><path d="M2002 117h0"></path><path d="M2064.5 117h0"></path><rect x="2002" y="106" width="62.5" height="22"></rect><text x="2033.25" y="121">END</text></g><path d="M2064.5 117h10"></path><g><path d="M2074.5 117h0"></path><path d="M2219.5 117h0"></path><path d="M2074.5 117a10 10 0 0 0 10 -10v-7a10 10 0 0 1 10 -10"></path><g><path d="M2094.5 90h105"></path></g><path d="M2199.5 90a10 10 0 0 1 10 10v7a10 10 0 0 0 10 10"></path><path d="M2074.5 117h20"></path><g class="terminal "><path d="M2094.5 117h0"></path><path d="M2199.5 117h0"></path><rect x="2094.5" y="106" width="105" height="22"></rect><text x="2147" y="121">FUNCTION</text></g><path d="M2199.5 117h20"></path></g></g><path d="M2229.5 117h0"></path></g><path d="M2229.5 117a10 10 0 0 0 10 -10v-34a10 10 0 0 1 10 -10"></path></g></g><path d="M2259.5 63h0"></path></g><path d="M2259.5 63h20"></path></g><path d="M 2279.5 63 h 20 m 0 -10 v 20"></path></g><defs><style type="text/css">path {
stroke-width: 1.25;
stroke: #9cc2e5;
fill: rgba(0, 0, 0, 0);
}
text {
text-anchor: middle;
fill: #404040;
font-family: Calibri, Arial, sans-serif;
}
g.terminal text {
font-weight: bold;
}
g.non-terminal rect {
stroke-width: 1;
stroke: #9cc2e5;
fill: rgba(255, 255, 255, 1);
}
g.terminal rect {
stroke-width: 1;
stroke: #9cc2e5;
fill: rgba(255, 255, 255, 1);
}</style></defs></svg>