<?xml version="1.0" encoding="UTF-8" standalone="no"?>
<!DOCTYPE svg PUBLIC "-//W3C//DTD SVG 1.1//EN" "http://www.w3.org/Graphics/SVG/1.1/DTD/svg11.dtd">
<svg class="railroad-diagram" width="693.5" height="94" viewBox="0 0 693.5 94" id="drop_func" xmlns="http://www.w3.org/2000/svg" xmlns:xlink="http://www.w3.org/1999/xlink"><g transform="translate(.5 .5)"><g><path d="M20 37v20m0 -10h20"></path></g><g><path d="M40 47h0"></path><path d="M653.5 47h0"></path><path d="M40 47h20"></path><g><path d="M60 47h0"></path><g><path d="M60 47h10"></path><path d="M623.5 47h10"></path><g class="terminal "><path d="M70 47h0"></path><path d="M141 47h0"></path><rect x="70" y="36" width="71" height="22"></rect><text x="105.5" y="51">DROP</text></g><path d="M141 47h10"></path><path d="M151 47h10"></path><g class="terminal "><path d="M161 47h0"></path><path d="M266 47h0"></path><rect x="161" y="36" width="105" height="22"></rect><text x="213.5" y="51">FUNCTION</text></g><path d="M266 47h10"></path><path d="M276 47h10"></path><g class="non-terminal "><path d="M286 47h0"></path><path d="M340 47h0"></path><rect x="286" y="36" width="54" height="22" rx="10" ry="10"></rect><text x="313" y="51">func</text></g><path d="M340 47h10"></path><g><path d="M350 47h0"></path><path d="M623.5 47h0"></path><path d="M350 47a10 10 0 0 0 10 -10v-7a10 10 0 0 1 10 -10"></path><g><path d="M370 20h233.5"></path></g><path d="M603.5 20a10 10 0 0 1 10 10v7a10 10 0 0 0 10 10"></path><path d="M350 47h20"></path><g><path d="M370 47h0"></path><path d="M603.5 47h0"></path><path d="M370 47h10"></path><g><path d="M380 47h0"></path><path d="M593.5 47h0"></path><path d="M380 47h20"></path><g><path d="M400 47h0"></path><g><path d="M400 47h10"></path><path d="M563.5 47h10"></path><g class="terminal "><path d="M410 47h0"></path><path d="M489.5 47h0"></path><rect x="410" y="36" width="79.5" height="22"></rect><text x="449.75" y="51">,</text></g><path d="M489.5 47h10"></path><path d="M499.5 47h10"></path><g class="non-terminal "><path d="M509.5 47h0"></path><path d="M563.5 47h0"></path><rect x="509.5" y="36" width="54" height="22" rx="10" ry="10"></rect><text x="536.5" y="51">func</text></g></g><path d="M573.5 47h0"></path></g><path d="M573.5 47h20"></path></g><path d="M593.5 47h10"></path><path d="M380 47a10 10 0 0 0 -10 10v7a10 10 0 0 0 10 10"></path><g><path d="M380 74h213.5"></path></g><path d="M593.5 74a10 10 0 0 0 10 -10v-7a10 10 0 0 0 -10 -10"></path></g><path d="M603.5 47h20"></path></g></g><path d="M633.5 47h0"></path></g><path d="M633.5 47h20"></path></g><path d="M 653.5 47 h 20 m 0 -10 v 20"></path></g><defs><style type="text/css">path {
stroke-width: 1.25;
stroke: #9cc2e5;
fill: rgba(0, 0, 0, 0);
}
text {
text-anchor: middle;
fill: #404040;
font-family: Calibri, Arial, sans-serif;
}
g.terminal text {
font-weight: bold;
}
g.non-terminal rect {
stroke-width: 1;
stroke: #9cc2e5;
fill: rgba(255, 255, 255, 1);
}
g.terminal rect {
stroke-width: 1;
stroke: #9cc2e5;
fill: rgba(255, 255, 255, 1);
}</style></defs></svg>