<?xml version="1.0" encoding="UTF-8" standalone="no"?>
<!DOCTYPE svg PUBLIC "-//W3C//DTD SVG 1.1//EN" "http://www.w3.org/Graphics/SVG/1.1/DTD/svg11.dtd">
<svg class="railroad-diagram" width="325" height="420" viewBox="0 0 325 420" id="expression" xmlns="http://www.w3.org/2000/svg" xmlns:xlink="http://www.w3.org/1999/xlink"><g transform="translate(.5 .5)"><g><path d="M20 21v20m0 -10h20"></path></g><g><path d="M40 31h0"></path><path d="M285 31h0"></path><path d="M40 31h20"></path><g><path d="M60 31h0"></path><g><path d="M60 31h10"></path><path d="M255 31h10"></path><g><path d="M70 31h0"></path><path d="M255 31h0"></path><path d="M70 31h10"></path><g><path d="M80 31h0"></path><path d="M245 31h0"></path><path d="M80 31h20"></path><g><path d="M100 31h21.25"></path><g><path d="M121.25 31h10"></path><path d="M193.75 31h10"></path><g class="non-terminal "><path d="M131.25 31h0"></path><path d="M193.75 31h0"></path><rect x="131.25" y="20" width="62.5" height="22" rx="10" ry="10"></rect><text x="162.5" y="35">is_op</text></g></g><path d="M203.75 31h21.25"></path></g><path d="M225 31h20"></path><path d="M80 31a10 10 0 0 1 10 10v18a10 10 0 0 0 10 10"></path><g><path d="M100 69h0"></path><g><path d="M100 69h10"></path><path d="M215 69h10"></path><g class="non-terminal "><path d="M110 69h0"></path><path d="M215 69h0"></path><rect x="110" y="58" width="105" height="22" rx="10" ry="10"></rect><text x="162.5" y="73">between_op</text></g></g><path d="M225 69h0"></path></g><path d="M225 69a10 10 0 0 0 10 -10v-18a10 10 0 0 1 10 -10"></path><path d="M80 31a10 10 0 0 1 10 10v56a10 10 0 0 0 10 10"></path><g><path d="M100 107h21.25"></path><g><path d="M121.25 107h10"></path><path d="M193.75 107h10"></path><g class="non-terminal "><path d="M131.25 107h0"></path><path d="M193.75 107h0"></path><rect x="131.25" y="96" width="62.5" height="22" rx="10" ry="10"></rect><text x="162.5" y="111">in_op</text></g></g><path d="M203.75 107h21.25"></path></g><path d="M225 107a10 10 0 0 0 10 -10v-56a10 10 0 0 1 10 -10"></path><path d="M80 31a10 10 0 0 1 10 10v94a10 10 0 0 0 10 10"></path><g><path d="M100 145h21.25"></path><g><path d="M121.25 145h10"></path><path d="M193.75 145h10"></path><g class="non-terminal "><path d="M131.25 145h0"></path><path d="M193.75 145h0"></path><rect x="131.25" y="134" width="62.5" height="22" rx="10" ry="10"></rect><text x="162.5" y="149">kw_op</text></g></g><path d="M203.75 145h21.25"></path></g><path d="M225 145a10 10 0 0 0 10 -10v-94a10 10 0 0 1 10 -10"></path><path d="M80 31a10 10 0 0 1 10 10v132a10 10 0 0 0 10 10"></path><g><path d="M100 183h17"></path><g><path d="M117 183h10"></path><path d="M198 183h10"></path><g class="non-terminal "><path d="M127 183h0"></path><path d="M198 183h0"></path><rect x="127" y="172" width="71" height="22" rx="10" ry="10"></rect><text x="162.5" y="187">sym_op</text></g></g><path d="M208 183h17"></path></g><path d="M225 183a10 10 0 0 0 10 -10v-132a10 10 0 0 1 10 -10"></path><path d="M80 31a10 10 0 0 1 10 10v170a10 10 0 0 0 10 10"></path><g><path d="M100 221h8.5"></path><g><path d="M108.5 221h10"></path><path d="M206.5 221h10"></path><g class="non-terminal "><path d="M118.5 221h0"></path><path d="M206.5 221h0"></path><rect x="118.5" y="210" width="88" height="22" rx="10" ry="10"></rect><text x="162.5" y="225">var_name</text></g></g><path d="M216.5 221h8.5"></path></g><path d="M225 221a10 10 0 0 0 10 -10v-170a10 10 0 0 1 10 -10"></path><path d="M80 31a10 10 0 0 1 10 10v208a10 10 0 0 0 10 10"></path><g><path d="M100 259h12.75"></path><g><path d="M112.75 259h10"></path><path d="M202.25 259h10"></path><g class="non-terminal "><path d="M122.75 259h0"></path><path d="M202.25 259h0"></path><rect x="122.75" y="248" width="79.5" height="22" rx="10" ry="10"></rect><text x="162.5" y="263">literal</text></g></g><path d="M212.25 259h12.75"></path></g><path d="M225 259a10 10 0 0 0 10 -10v-208a10 10 0 0 1 10 -10"></path><path d="M80 31a10 10 0 0 1 10 10v246a10 10 0 0 0 10 10"></path><g><path d="M100 297h4.25"></path><g><path d="M104.25 297h10"></path><path d="M210.75 297h10"></path><g class="non-terminal "><path d="M114.25 297h0"></path><path d="M210.75 297h0"></path><rect x="114.25" y="286" width="96.5" height="22" rx="10" ry="10"></rect><text x="162.5" y="301">func_call</text></g></g><path d="M220.75 297h4.25"></path></g><path d="M225 297a10 10 0 0 0 10 -10v-246a10 10 0 0 1 10 -10"></path><path d="M80 31a10 10 0 0 1 10 10v284a10 10 0 0 0 10 10"></path><g><path d="M100 335h21.25"></path><g><path d="M121.25 335h10"></path><path d="M193.75 335h10"></path><g class="non-terminal "><path d="M131.25 335h0"></path><path d="M193.75 335h0"></path><rect x="131.25" y="324" width="62.5" height="22" rx="10" ry="10"></rect><text x="162.5" y="339">array</text></g></g><path d="M203.75 335h21.25"></path></g><path d="M225 335a10 10 0 0 0 10 -10v-284a10 10 0 0 1 10 -10"></path><path d="M80 31a10 10 0 0 1 10 10v322a10 10 0 0 0 10 10"></path><g><path d="M100 373h25.5"></path><g><path d="M125.5 373h10"></path><path d="M189.5 373h10"></path><g class="non-terminal "><path d="M135.5 373h0"></path><path d="M189.5 373h0"></path><rect x="135.5" y="362" width="54" height="22" rx="10" ry="10"></rect><text x="162.5" y="377">attr</text></g></g><path d="M199.5 373h25.5"></path></g><path d="M225 373a10 10 0 0 0 10 -10v-322a10 10 0 0 1 10 -10"></path></g><path d="M245 31h10"></path><path d="M80 31a10 10 0 0 0 -10 10v349a10 10 0 0 0 10 10"></path><g><path d="M80 400h165"></path></g><path d="M245 400a10 10 0 0 0 10 -10v-349a10 10 0 0 0 -10 -10"></path></g></g><path d="M265 31h0"></path></g><path d="M265 31h20"></path></g><path d="M 285 31 h 20 m 0 -10 v 20"></path></g><defs><style type="text/css">path {
stroke-width: 1.25;
stroke: #9cc2e5;
fill: rgba(0, 0, 0, 0);
}
text {
text-anchor: middle;
fill: #404040;
font-family: Calibri, Arial, sans-serif;
}
g.terminal text {
font-weight: bold;
}
g.non-terminal rect {
stroke-width: 1;
stroke: #9cc2e5;
fill: rgba(255, 255, 255, 1);
}
g.terminal rect {
stroke-width: 1;
stroke: #9cc2e5;
fill: rgba(255, 255, 255, 1);
}</style></defs></svg>