<?xml version="1.0" encoding="UTF-8" standalone="no"?>
<!DOCTYPE svg PUBLIC "-//W3C//DTD SVG 1.1//EN" "http://www.w3.org/Graphics/SVG/1.1/DTD/svg11.dtd">
<svg class="railroad-diagram" width="841" height="148" viewBox="0 0 841 148" id="from_positional" xmlns="http://www.w3.org/2000/svg" xmlns:xlink="http://www.w3.org/1999/xlink"><g transform="translate(.5 .5)"><g><path d="M20 37v20m0 -10h20"></path></g><g><path d="M40 47h0"></path><path d="M801 47h0"></path><path d="M40 47h20"></path><g><path d="M60 47h91"></path><g><path d="M151 47h10"></path><path d="M680 47h10"></path><g class="terminal "><path d="M161 47h0"></path><path d="M240.5 47h0"></path><rect x="161" y="36" width="79.5" height="22"></rect><text x="200.75" y="51">INPUT</text></g><path d="M240.5 47h10"></path><g><path d="M250.5 47h0"></path><path d="M361.5 47h0"></path><path d="M250.5 47a10 10 0 0 0 10 -10v-7a10 10 0 0 1 10 -10"></path><g><path d="M270.5 20h71"></path></g><path d="M341.5 20a10 10 0 0 1 10 10v7a10 10 0 0 0 10 10"></path><path d="M250.5 47h20"></path><g class="terminal "><path d="M270.5 47h0"></path><path d="M341.5 47h0"></path><rect x="270.5" y="36" width="71" height="22"></rect><text x="306" y="51">FROM</text></g><path d="M341.5 47h20"></path></g><path d="M361.5 47h10"></path><g class="non-terminal "><path d="M371.5 47h0"></path><path d="M451 47h0"></path><rect x="371.5" y="36" width="79.5" height="22" rx="10" ry="10"></rect><text x="411.25" y="51">ds_name</text></g><path d="M451 47h10"></path><path d="M461 47h10"></path><g class="terminal "><path d="M471 47h0"></path><path d="M542 47h0"></path><rect x="471" y="36" width="71" height="22"></rect><text x="506.5" y="51">*</text></g><path d="M542 47h10"></path><g><path d="M552 47h0"></path><path d="M680 47h0"></path><path d="M552 47a10 10 0 0 0 10 -10v-7a10 10 0 0 1 10 -10"></path><g><path d="M572 20h88"></path></g><path d="M660 20a10 10 0 0 1 10 10v7a10 10 0 0 0 10 10"></path><path d="M552 47h20"></path><g class="non-terminal "><path d="M572 47h0"></path><path d="M660 47h0"></path><rect x="572" y="36" width="88" height="22" rx="10" ry="10"></rect><text x="616" y="51">ds_parts</text></g><path d="M660 47h20"></path></g></g><path d="M690 47h91"></path></g><path d="M781 47h20"></path><path d="M40 47a10 10 0 0 1 10 10v34a10 10 0 0 0 10 10"></path><g><path d="M60 101h0"></path><g><path d="M60 101h10"></path><path d="M771 101h10"></path><g class="terminal "><path d="M70 101h0"></path><path d="M149.5 101h0"></path><rect x="70" y="90" width="79.5" height="22"></rect><text x="109.75" y="105">INPUT</text></g><path d="M149.5 101h10"></path><g><path d="M159.5 101h0"></path><path d="M270.5 101h0"></path><path d="M159.5 101a10 10 0 0 0 10 -10v-7a10 10 0 0 1 10 -10"></path><g><path d="M179.5 74h71"></path></g><path d="M250.5 74a10 10 0 0 1 10 10v7a10 10 0 0 0 10 10"></path><path d="M159.5 101h20"></path><g class="terminal "><path d="M179.5 101h0"></path><path d="M250.5 101h0"></path><rect x="179.5" y="90" width="71" height="22"></rect><text x="215" y="105">FROM</text></g><path d="M250.5 101h20"></path></g><path d="M270.5 101h10"></path><g class="non-terminal "><path d="M280.5 101h0"></path><path d="M411 101h0"></path><rect x="280.5" y="90" width="130.5" height="22" rx="10" ry="10"></rect><text x="345.75" y="105">ds_name_parts</text></g><path d="M411 101h10"></path><g><path d="M421 101h0"></path><path d="M771 101h0"></path><path d="M421 101a10 10 0 0 0 10 -10v-7a10 10 0 0 1 10 -10"></path><g><path d="M441 74h310"></path></g><path d="M751 74a10 10 0 0 1 10 10v7a10 10 0 0 0 10 10"></path><path d="M421 101h20"></path><g><path d="M441 101h0"></path><path d="M751 101h0"></path><path d="M441 101h10"></path><g><path d="M451 101h0"></path><path d="M741 101h0"></path><path d="M451 101h20"></path><g><path d="M471 101h0"></path><g><path d="M471 101h10"></path><path d="M711 101h10"></path><g class="terminal "><path d="M481 101h0"></path><path d="M560.5 101h0"></path><rect x="481" y="90" width="79.5" height="22"></rect><text x="520.75" y="105">,</text></g><path d="M560.5 101h10"></path><path d="M570.5 101h10"></path><g class="non-terminal "><path d="M580.5 101h0"></path><path d="M711 101h0"></path><rect x="580.5" y="90" width="130.5" height="22" rx="10" ry="10"></rect><text x="645.75" y="105">ds_name_parts</text></g></g><path d="M721 101h0"></path></g><path d="M721 101h20"></path></g><path d="M741 101h10"></path><path d="M451 101a10 10 0 0 0 -10 10v7a10 10 0 0 0 10 10"></path><g><path d="M451 128h290"></path></g><path d="M741 128a10 10 0 0 0 10 -10v-7a10 10 0 0 0 -10 -10"></path></g><path d="M751 101h20"></path></g></g><path d="M781 101h0"></path></g><path d="M781 101a10 10 0 0 0 10 -10v-34a10 10 0 0 1 10 -10"></path></g><path d="M 801 47 h 20 m 0 -10 v 20"></path></g><defs><style type="text/css">path {
stroke-width: 1.25;
stroke: #9cc2e5;
fill: rgba(0, 0, 0, 0);
}
text {
text-anchor: middle;
fill: #404040;
font-family: Calibri, Arial, sans-serif;
}
g.terminal text {
font-weight: bold;
}
g.non-terminal rect {
stroke-width: 1;
stroke: #9cc2e5;
fill: rgba(255, 255, 255, 1);
}
g.terminal rect {
stroke-width: 1;
stroke: #9cc2e5;
fill: rgba(255, 255, 255, 1);
}</style></defs></svg>