<?xml version="1.0" encoding="UTF-8" standalone="no"?>
<!DOCTYPE svg PUBLIC "-//W3C//DTD SVG 1.1//EN" "http://www.w3.org/Graphics/SVG/1.1/DTD/svg11.dtd">
<svg class="railroad-diagram" width="708.5" height="224" viewBox="0 0 708.5 224" id="from_scope" xmlns="http://www.w3.org/2000/svg" xmlns:xlink="http://www.w3.org/1999/xlink"><g transform="translate(.5 .5)"><g><path d="M20 21v20m0 -10h20"></path></g><g><path d="M40 31h0"></path><path d="M668.5 31h0"></path><path d="M40 31h20"></path><g><path d="M60 31h219"></path><g><path d="M279 31h10"></path><path d="M419.5 31h10"></path><g class="non-terminal "><path d="M289 31h0"></path><path d="M419.5 31h0"></path><rect x="289" y="20" width="130.5" height="22" rx="10" ry="10"></rect><text x="354.25" y="35">ds_name_parts</text></g></g><path d="M429.5 31h219"></path></g><path d="M648.5 31h20"></path><path d="M40 31a10 10 0 0 1 10 10v18a10 10 0 0 0 10 10"></path><g><path d="M60 69h4.25"></path><g><path d="M64.25 69h10"></path><path d="M634.25 69h10"></path><g class="non-terminal "><path d="M74.25 69h0"></path><path d="M153.75 69h0"></path><rect x="74.25" y="58" width="79.5" height="22" rx="10" ry="10"></rect><text x="114" y="73">join_op</text></g><path d="M153.75 69h10"></path><path d="M163.75 69h10"></path><g class="non-terminal "><path d="M173.75 69h0"></path><path d="M304.25 69h0"></path><rect x="173.75" y="58" width="130.5" height="22" rx="10" ry="10"></rect><text x="239" y="73">ds_name_parts</text></g><path d="M304.25 69h10"></path><path d="M314.25 69h10"></path><g><path d="M324.25 69h0"></path><path d="M634.25 69h0"></path><path d="M324.25 69h10"></path><g><path d="M334.25 69h0"></path><path d="M624.25 69h0"></path><path d="M334.25 69h20"></path><g><path d="M354.25 69h0"></path><g><path d="M354.25 69h10"></path><path d="M594.25 69h10"></path><g class="terminal "><path d="M364.25 69h0"></path><path d="M443.75 69h0"></path><rect x="364.25" y="58" width="79.5" height="22"></rect><text x="404" y="73">,</text></g><path d="M443.75 69h10"></path><path d="M453.75 69h10"></path><g class="non-terminal "><path d="M463.75 69h0"></path><path d="M594.25 69h0"></path><rect x="463.75" y="58" width="130.5" height="22" rx="10" ry="10"></rect><text x="529" y="73">ds_name_parts</text></g></g><path d="M604.25 69h0"></path></g><path d="M604.25 69h20"></path></g><path d="M624.25 69h10"></path><path d="M334.25 69a10 10 0 0 0 -10 10v7a10 10 0 0 0 10 10"></path><g><path d="M334.25 96h290"></path></g><path d="M624.25 96a10 10 0 0 0 10 -10v-7a10 10 0 0 0 -10 -10"></path></g></g><path d="M644.25 69h4.25"></path></g><path d="M648.5 69a10 10 0 0 0 10 -10v-18a10 10 0 0 1 10 -10"></path><path d="M40 31a10 10 0 0 1 10 10v72a10 10 0 0 0 10 10"></path><g><path d="M60 123h0"></path><g><path d="M60 123h10"></path><path d="M638.5 123h10"></path><g class="non-terminal "><path d="M70 123h0"></path><path d="M158 123h0"></path><rect x="70" y="112" width="88" height="22" rx="10" ry="10"></rect><text x="114" y="127">union_op</text></g><path d="M158 123h10"></path><path d="M168 123h10"></path><g class="non-terminal "><path d="M178 123h0"></path><path d="M308.5 123h0"></path><rect x="178" y="112" width="130.5" height="22" rx="10" ry="10"></rect><text x="243.25" y="127">ds_name_parts</text></g><path d="M308.5 123h10"></path><path d="M318.5 123h10"></path><g><path d="M328.5 123h0"></path><path d="M638.5 123h0"></path><path d="M328.5 123h10"></path><g><path d="M338.5 123h0"></path><path d="M628.5 123h0"></path><path d="M338.5 123h20"></path><g><path d="M358.5 123h0"></path><g><path d="M358.5 123h10"></path><path d="M598.5 123h10"></path><g class="terminal "><path d="M368.5 123h0"></path><path d="M448 123h0"></path><rect x="368.5" y="112" width="79.5" height="22"></rect><text x="408.25" y="127">,</text></g><path d="M448 123h10"></path><path d="M458 123h10"></path><g class="non-terminal "><path d="M468 123h0"></path><path d="M598.5 123h0"></path><rect x="468" y="112" width="130.5" height="22" rx="10" ry="10"></rect><text x="533.25" y="127">ds_name_parts</text></g></g><path d="M608.5 123h0"></path></g><path d="M608.5 123h20"></path></g><path d="M628.5 123h10"></path><path d="M338.5 123a10 10 0 0 0 -10 10v7a10 10 0 0 0 10 10"></path><g><path d="M338.5 150h290"></path></g><path d="M628.5 150a10 10 0 0 0 10 -10v-7a10 10 0 0 0 -10 -10"></path></g></g><path d="M648.5 123h0"></path></g><path d="M648.5 123a10 10 0 0 0 10 -10v-72a10 10 0 0 1 10 -10"></path><path d="M40 31a10 10 0 0 1 10 10v142a10 10 0 0 0 10 10"></path><g><path d="M60 193h76"></path><g><path d="M136 193h10"></path><path d="M562.5 193h10"></path><g class="non-terminal "><path d="M146 193h0"></path><path d="M234 193h0"></path><rect x="146" y="182" width="88" height="22" rx="10" ry="10"></rect><text x="190" y="197">union_op</text></g><path d="M234 193h10"></path><path d="M244 193h10"></path><g class="non-terminal "><path d="M254 193h0"></path><path d="M333.5 193h0"></path><rect x="254" y="182" width="79.5" height="22" rx="10" ry="10"></rect><text x="293.75" y="197">ds_name</text></g><path d="M333.5 193h10"></path><path d="M343.5 193h10"></path><g class="terminal "><path d="M353.5 193h0"></path><path d="M424.5 193h0"></path><rect x="353.5" y="182" width="71" height="22"></rect><text x="389" y="197">*</text></g><path d="M424.5 193h10"></path><g><path d="M434.5 193h0"></path><path d="M562.5 193h0"></path><path d="M434.5 193a10 10 0 0 0 10 -10v-7a10 10 0 0 1 10 -10"></path><g><path d="M454.5 166h88"></path></g><path d="M542.5 166a10 10 0 0 1 10 10v7a10 10 0 0 0 10 10"></path><path d="M434.5 193h20"></path><g class="non-terminal "><path d="M454.5 193h0"></path><path d="M542.5 193h0"></path><rect x="454.5" y="182" width="88" height="22" rx="10" ry="10"></rect><text x="498.5" y="197">ds_parts</text></g><path d="M542.5 193h20"></path></g></g><path d="M572.5 193h76"></path></g><path d="M648.5 193a10 10 0 0 0 10 -10v-142a10 10 0 0 1 10 -10"></path></g><path d="M 668.5 31 h 20 m 0 -10 v 20"></path></g><defs><style type="text/css">path {
stroke-width: 1.25;
stroke: #9cc2e5;
fill: rgba(0, 0, 0, 0);
}
text {
text-anchor: middle;
fill: #404040;
font-family: Calibri, Arial, sans-serif;
}
g.terminal text {
font-weight: bold;
}
g.non-terminal rect {
stroke-width: 1;
stroke: #9cc2e5;
fill: rgba(255, 255, 255, 1);
}
g.terminal rect {
stroke-width: 1;
stroke: #9cc2e5;
fill: rgba(255, 255, 255, 1);
}</style></defs></svg>