<?xml version="1.0" encoding="UTF-8" standalone="no"?>
<!DOCTYPE svg PUBLIC "-//W3C//DTD SVG 1.1//EN" "http://www.w3.org/Graphics/SVG/1.1/DTD/svg11.dtd">
<svg class="railroad-diagram" width="1168" height="110" viewBox="0 0 1168 110" id="from_named" xmlns="http://www.w3.org/2000/svg" xmlns:xlink="http://www.w3.org/1999/xlink"><g transform="translate(.5 .5)"><g><path d="M20 53v20m0 -10h20"></path></g><g><path d="M40 63h0"></path><path d="M1128 63h0"></path><path d="M40 63h20"></path><g><path d="M60 63h0"></path><g><path d="M60 63h10"></path><path d="M1098 63h10"></path><g class="terminal "><path d="M70 63h0"></path><path d="M149.5 63h0"></path><rect x="70" y="52" width="79.5" height="22"></rect><text x="109.75" y="67">INPUT</text></g><path d="M149.5 63h10"></path><path d="M159.5 63h10"></path><g class="non-terminal "><path d="M169.5 63h0"></path><path d="M257.5 63h0"></path><rect x="169.5" y="52" width="88" height="22" rx="10" ry="10"></rect><text x="213.5" y="67">ds_alias</text></g><path d="M257.5 63h10"></path><g><path d="M267.5 63h0"></path><path d="M378.5 63h0"></path><path d="M267.5 63a10 10 0 0 0 10 -10v-7a10 10 0 0 1 10 -10"></path><g><path d="M287.5 36h71"></path></g><path d="M358.5 36a10 10 0 0 1 10 10v7a10 10 0 0 0 10 10"></path><path d="M267.5 63h20"></path><g class="terminal "><path d="M287.5 63h0"></path><path d="M358.5 63h0"></path><rect x="287.5" y="52" width="71" height="22"></rect><text x="323" y="67">FROM</text></g><path d="M358.5 63h20"></path></g><path d="M378.5 63h10"></path><g class="non-terminal "><path d="M388.5 63h0"></path><path d="M519 63h0"></path><rect x="388.5" y="52" width="130.5" height="22" rx="10" ry="10"></rect><text x="453.75" y="67">ds_name_parts</text></g><path d="M519 63h10"></path><g><path d="M529 63h0"></path><path d="M1098 63h0"></path><path d="M529 63a10 10 0 0 0 10 -10v-23a10 10 0 0 1 10 -10"></path><g><path d="M549 20h529"></path></g><path d="M1078 20a10 10 0 0 1 10 10v23a10 10 0 0 0 10 10"></path><path d="M529 63h20"></path><g><path d="M549 63h0"></path><path d="M1078 63h0"></path><path d="M549 63h10"></path><g><path d="M559 63h0"></path><path d="M1068 63h0"></path><path d="M559 63h20"></path><g><path d="M579 63h0"></path><g><path d="M579 63h10"></path><path d="M1038 63h10"></path><g class="terminal "><path d="M589 63h0"></path><path d="M668.5 63h0"></path><rect x="589" y="52" width="79.5" height="22"></rect><text x="628.75" y="67">,</text></g><path d="M668.5 63h10"></path><path d="M678.5 63h10"></path><g class="non-terminal "><path d="M688.5 63h0"></path><path d="M776.5 63h0"></path><rect x="688.5" y="52" width="88" height="22" rx="10" ry="10"></rect><text x="732.5" y="67">ds_alias</text></g><path d="M776.5 63h10"></path><g><path d="M786.5 63h0"></path><path d="M897.5 63h0"></path><path d="M786.5 63a10 10 0 0 0 10 -10v-7a10 10 0 0 1 10 -10"></path><g><path d="M806.5 36h71"></path></g><path d="M877.5 36a10 10 0 0 1 10 10v7a10 10 0 0 0 10 10"></path><path d="M786.5 63h20"></path><g class="terminal "><path d="M806.5 63h0"></path><path d="M877.5 63h0"></path><rect x="806.5" y="52" width="71" height="22"></rect><text x="842" y="67">FROM</text></g><path d="M877.5 63h20"></path></g><path d="M897.5 63h10"></path><g class="non-terminal "><path d="M907.5 63h0"></path><path d="M1038 63h0"></path><rect x="907.5" y="52" width="130.5" height="22" rx="10" ry="10"></rect><text x="972.75" y="67">ds_name_parts</text></g></g><path d="M1048 63h0"></path></g><path d="M1048 63h20"></path></g><path d="M1068 63h10"></path><path d="M559 63a10 10 0 0 0 -10 10v7a10 10 0 0 0 10 10"></path><g><path d="M559 90h509"></path></g><path d="M1068 90a10 10 0 0 0 10 -10v-7a10 10 0 0 0 -10 -10"></path></g><path d="M1078 63h20"></path></g></g><path d="M1108 63h0"></path></g><path d="M1108 63h20"></path></g><path d="M 1128 63 h 20 m 0 -10 v 20"></path></g><defs><style type="text/css">path {
stroke-width: 1.25;
stroke: #9cc2e5;
fill: rgba(0, 0, 0, 0);
}
text {
text-anchor: middle;
fill: #404040;
font-family: Calibri, Arial, sans-serif;
}
g.terminal text {
font-weight: bold;
}
g.non-terminal rect {
stroke-width: 1;
stroke: #9cc2e5;
fill: rgba(255, 255, 255, 1);
}
g.terminal rect {
stroke-width: 1;
stroke: #9cc2e5;
fill: rgba(255, 255, 255, 1);
}</style></defs></svg>