<?xml version="1.0" encoding="UTF-8" standalone="no"?>
<!DOCTYPE svg PUBLIC "-//W3C//DTD SVG 1.1//EN" "http://www.w3.org/Graphics/SVG/1.1/DTD/svg11.dtd">
<svg class="railroad-diagram" width="696" height="94" viewBox="0 0 696 94" id="func_expr" xmlns="http://www.w3.org/2000/svg" xmlns:xlink="http://www.w3.org/1999/xlink"><g transform="translate(.5 .5)"><g><path d="M20 53v20m0 -10h20"></path></g><g><path d="M40 63h0"></path><path d="M656 63h0"></path><path d="M40 63h20"></path><g><path d="M60 63h0"></path><g><path d="M60 63h10"></path><path d="M626 63h10"></path><g class="non-terminal "><path d="M70 63h0"></path><path d="M124 63h0"></path><rect x="70" y="52" width="54" height="22" rx="10" ry="10"></rect><text x="97" y="67">func</text></g><path d="M124 63h10"></path><g><path d="M134 63h0"></path><path d="M626 63h0"></path><path d="M134 63a10 10 0 0 0 10 -10v-23a10 10 0 0 1 10 -10"></path><g><path d="M154 20h452"></path></g><path d="M606 20a10 10 0 0 1 10 10v23a10 10 0 0 0 10 10"></path><path d="M134 63h20"></path><g><path d="M154 63h0"></path><path d="M606 63h0"></path><path d="M154 63h20"></path><g><path d="M174 63h0"></path><g><path d="M174 63h10"></path><path d="M576 63h10"></path><g class="terminal "><path d="M184 63h0"></path><path d="M289 63h0"></path><rect x="184" y="52" width="105" height="22"></rect><text x="236.5" y="67">(</text></g><path d="M289 63h10"></path><g><path d="M299 63h0"></path><path d="M452.5 63h0"></path><path d="M299 63a10 10 0 0 0 10 -10v-7a10 10 0 0 1 10 -10"></path><g><path d="M319 36h113.5"></path></g><path d="M432.5 36a10 10 0 0 1 10 10v7a10 10 0 0 0 10 10"></path><path d="M299 63h20"></path><g class="non-terminal "><path d="M319 63h0"></path><path d="M432.5 63h0"></path><rect x="319" y="52" width="113.5" height="22" rx="10" ry="10"></rect><text x="375.75" y="67">params_expr</text></g><path d="M432.5 63h20"></path></g><path d="M452.5 63h10"></path><g class="terminal "><path d="M462.5 63h0"></path><path d="M576 63h0"></path><rect x="462.5" y="52" width="113.5" height="22"></rect><text x="519.25" y="67">)</text></g></g><path d="M586 63h0"></path></g><path d="M586 63h20"></path></g><path d="M606 63h20"></path></g></g><path d="M636 63h0"></path></g><path d="M636 63h20"></path></g><path d="M 656 63 h 20 m 0 -10 v 20"></path></g><defs><style type="text/css">path {
stroke-width: 1.25;
stroke: #9cc2e5;
fill: rgba(0, 0, 0, 0);
}
text {
text-anchor: middle;
fill: #404040;
font-family: Calibri, Arial, sans-serif;
}
g.terminal text {
font-weight: bold;
}
g.non-terminal rect {
stroke-width: 1;
stroke: #9cc2e5;
fill: rgba(255, 255, 255, 1);
}
g.terminal rect {
stroke-width: 1;
stroke: #9cc2e5;
fill: rgba(255, 255, 255, 1);
}</style></defs></svg>