<?xml version="1.0" encoding="UTF-8" standalone="no"?>
<!DOCTYPE svg PUBLIC "-//W3C//DTD SVG 1.1//EN" "http://www.w3.org/Graphics/SVG/1.1/DTD/svg11.dtd">
<svg class="railroad-diagram" width="902" height="170" viewBox="0 0 902 170" id="func_call" xmlns="http://www.w3.org/2000/svg" xmlns:xlink="http://www.w3.org/1999/xlink"><g transform="translate(.5 .5)"><g><path d="M20 37v20m0 -10h20"></path></g><g><path d="M40 47h0"></path><path d="M862 47h0"></path><path d="M40 47h20"></path><g><path d="M60 47h0"></path><g><path d="M60 47h10"></path><path d="M832 47h10"></path><g class="non-terminal "><path d="M70 47h0"></path><path d="M124 47h0"></path><rect x="70" y="36" width="54" height="22" rx="10" ry="10"></rect><text x="97" y="51">func</text></g><path d="M124 47h10"></path><path d="M134 47h10"></path><g class="terminal "><path d="M144 47h0"></path><path d="M249 47h0"></path><rect x="144" y="36" width="105" height="22"></rect><text x="196.5" y="51">(</text></g><path d="M249 47h10"></path><path d="M259 47h10"></path><g class="non-terminal "><path d="M269 47h0"></path><path d="M374 47h0"></path><rect x="269" y="36" width="105" height="22" rx="10" ry="10"></rect><text x="321.5" y="51">expression</text></g><path d="M374 47h10"></path><g><path d="M384 47h0"></path><path d="M708.5 47h0"></path><path d="M384 47a10 10 0 0 0 10 -10v-7a10 10 0 0 1 10 -10"></path><g><path d="M404 20h284.5"></path></g><path d="M688.5 20a10 10 0 0 1 10 10v7a10 10 0 0 0 10 10"></path><path d="M384 47h20"></path><g><path d="M404 47h0"></path><path d="M688.5 47h0"></path><path d="M404 47h10"></path><g><path d="M414 47h0"></path><path d="M678.5 47h0"></path><path d="M414 47h20"></path><g><path d="M434 47h0"></path><g><path d="M434 47h10"></path><path d="M648.5 47h10"></path><g class="terminal "><path d="M444 47h0"></path><path d="M523.5 47h0"></path><rect x="444" y="36" width="79.5" height="22"></rect><text x="483.75" y="51">,</text></g><path d="M523.5 47h10"></path><path d="M533.5 47h10"></path><g class="non-terminal "><path d="M543.5 47h0"></path><path d="M648.5 47h0"></path><rect x="543.5" y="36" width="105" height="22" rx="10" ry="10"></rect><text x="596" y="51">expression</text></g></g><path d="M658.5 47h0"></path></g><path d="M658.5 47h20"></path></g><path d="M678.5 47h10"></path><path d="M414 47a10 10 0 0 0 -10 10v7a10 10 0 0 0 10 10"></path><g><path d="M414 74h264.5"></path></g><path d="M678.5 74a10 10 0 0 0 10 -10v-7a10 10 0 0 0 -10 -10"></path></g><path d="M688.5 47h20"></path></g><path d="M708.5 47h10"></path><g class="terminal "><path d="M718.5 47h0"></path><path d="M832 47h0"></path><rect x="718.5" y="36" width="113.5" height="22"></rect><text x="775.25" y="51">)</text></g></g><path d="M842 47h0"></path></g><path d="M842 47h20"></path><path d="M40 47a10 10 0 0 1 10 10v34a10 10 0 0 0 10 10"></path><g><path d="M60 101h224.75"></path><g><path d="M284.75 101h10"></path><path d="M607.25 101h10"></path><g class="non-terminal "><path d="M294.75 101h0"></path><path d="M348.75 101h0"></path><rect x="294.75" y="90" width="54" height="22" rx="10" ry="10"></rect><text x="321.75" y="105">func</text></g><path d="M348.75 101h10"></path><path d="M358.75 101h10"></path><g class="terminal "><path d="M368.75 101h0"></path><path d="M473.75 101h0"></path><rect x="368.75" y="90" width="105" height="22"></rect><text x="421.25" y="105">(</text></g><path d="M473.75 101h10"></path><path d="M483.75 101h10"></path><g class="terminal "><path d="M493.75 101h0"></path><path d="M607.25 101h0"></path><rect x="493.75" y="90" width="113.5" height="22"></rect><text x="550.5" y="105">)</text></g></g><path d="M617.25 101h224.75"></path></g><path d="M842 101a10 10 0 0 0 10 -10v-34a10 10 0 0 1 10 -10"></path><path d="M40 47a10 10 0 0 1 10 10v72a10 10 0 0 0 10 10"></path><g><path d="M60 139h199.25"></path><g><path d="M259.25 139h10"></path><path d="M632.75 139h10"></path><g class="terminal "><path d="M269.25 139h0"></path><path d="M374.25 139h0"></path><rect x="269.25" y="128" width="105" height="22"></rect><text x="321.75" y="143">(</text></g><path d="M374.25 139h10"></path><path d="M384.25 139h10"></path><g class="non-terminal "><path d="M394.25 139h0"></path><path d="M499.25 139h0"></path><rect x="394.25" y="128" width="105" height="22" rx="10" ry="10"></rect><text x="446.75" y="143">expression</text></g><path d="M499.25 139h10"></path><path d="M509.25 139h10"></path><g class="terminal "><path d="M519.25 139h0"></path><path d="M632.75 139h0"></path><rect x="519.25" y="128" width="113.5" height="22"></rect><text x="576" y="143">)</text></g></g><path d="M642.75 139h199.25"></path></g><path d="M842 139a10 10 0 0 0 10 -10v-72a10 10 0 0 1 10 -10"></path></g><path d="M 862 47 h 20 m 0 -10 v 20"></path></g><defs><style type="text/css">path {
stroke-width: 1.25;
stroke: #9cc2e5;
fill: rgba(0, 0, 0, 0);
}
text {
text-anchor: middle;
fill: #404040;
font-family: Calibri, Arial, sans-serif;
}
g.terminal text {
font-weight: bold;
}
g.non-terminal rect {
stroke-width: 1;
stroke: #9cc2e5;
fill: rgba(255, 255, 255, 1);
}
g.terminal rect {
stroke-width: 1;
stroke: #9cc2e5;
fill: rgba(255, 255, 255, 1);
}</style></defs></svg>