<?xml version="1.0" encoding="UTF-8" standalone="no"?>
<!DOCTYPE svg PUBLIC "-//W3C//DTD SVG 1.1//EN" "http://www.w3.org/Graphics/SVG/1.1/DTD/svg11.dtd">
<svg class="railroad-diagram" width="1017.5" height="78" viewBox="0 0 1017.5 78" id="if_func" xmlns="http://www.w3.org/2000/svg" xmlns:xlink="http://www.w3.org/1999/xlink"><g transform="translate(.5 .5)"><g><path d="M20 37v20m0 -10h20"></path></g><g><path d="M40 47h0"></path><path d="M977.5 47h0"></path><path d="M40 47h20"></path><g><path d="M60 47h0"></path><g><path d="M60 47h10"></path><path d="M947.5 47h10"></path><g class="terminal "><path d="M70 47h0"></path><path d="M124 47h0"></path><rect x="70" y="36" width="54" height="22"></rect><text x="97" y="51">IF</text></g><path d="M124 47h10"></path><path d="M134 47h10"></path><g class="non-terminal "><path d="M144 47h0"></path><path d="M249 47h0"></path><rect x="144" y="36" width="105" height="22" rx="10" ry="10"></rect><text x="196.5" y="51">expression</text></g><path d="M249 47h10"></path><path d="M259 47h10"></path><g class="terminal "><path d="M269 47h0"></path><path d="M340 47h0"></path><rect x="269" y="36" width="71" height="22"></rect><text x="304.5" y="51">THEN</text></g><path d="M340 47h10"></path><path d="M350 47h10"></path><g class="non-terminal "><path d="M360 47h0"></path><path d="M465 47h0"></path><rect x="360" y="36" width="105" height="22" rx="10" ry="10"></rect><text x="412.5" y="51">func_stmts</text></g><path d="M465 47h10"></path><g><path d="M475 47h0"></path><path d="M771 47h0"></path><path d="M475 47a10 10 0 0 0 10 -10v-7a10 10 0 0 1 10 -10"></path><g><path d="M495 20h256"></path></g><path d="M751 20a10 10 0 0 1 10 10v7a10 10 0 0 0 10 10"></path><path d="M475 47h20"></path><g><path d="M495 47h0"></path><path d="M751 47h0"></path><path d="M495 47h20"></path><g><path d="M515 47h0"></path><g><path d="M515 47h10"></path><path d="M721 47h10"></path><g class="terminal "><path d="M525 47h0"></path><path d="M596 47h0"></path><rect x="525" y="36" width="71" height="22"></rect><text x="560.5" y="51">ELSE</text></g><path d="M596 47h10"></path><path d="M606 47h10"></path><g class="non-terminal "><path d="M616 47h0"></path><path d="M721 47h0"></path><rect x="616" y="36" width="105" height="22" rx="10" ry="10"></rect><text x="668.5" y="51">func_stmts</text></g></g><path d="M731 47h0"></path></g><path d="M731 47h20"></path></g><path d="M751 47h20"></path></g><path d="M771 47h10"></path><g class="terminal "><path d="M781 47h0"></path><path d="M843.5 47h0"></path><rect x="781" y="36" width="62.5" height="22"></rect><text x="812.25" y="51">END</text></g><path d="M843.5 47h10"></path><g><path d="M853.5 47h0"></path><path d="M947.5 47h0"></path><path d="M853.5 47a10 10 0 0 0 10 -10v-7a10 10 0 0 1 10 -10"></path><g><path d="M873.5 20h54"></path></g><path d="M927.5 20a10 10 0 0 1 10 10v7a10 10 0 0 0 10 10"></path><path d="M853.5 47h20"></path><g class="terminal "><path d="M873.5 47h0"></path><path d="M927.5 47h0"></path><rect x="873.5" y="36" width="54" height="22"></rect><text x="900.5" y="51">IF</text></g><path d="M927.5 47h20"></path></g></g><path d="M957.5 47h0"></path></g><path d="M957.5 47h20"></path></g><path d="M 977.5 47 h 20 m 0 -10 v 20"></path></g><defs><style type="text/css">path {
stroke-width: 1.25;
stroke: #9cc2e5;
fill: rgba(0, 0, 0, 0);
}
text {
text-anchor: middle;
fill: #404040;
font-family: Calibri, Arial, sans-serif;
}
g.terminal text {
font-weight: bold;
}
g.non-terminal rect {
stroke-width: 1;
stroke: #9cc2e5;
fill: rgba(255, 255, 255, 1);
}
g.terminal rect {
stroke-width: 1;
stroke: #9cc2e5;
fill: rgba(255, 255, 255, 1);
}</style></defs></svg>