<?xml version="1.0" encoding="UTF-8" standalone="no"?>
<!DOCTYPE svg PUBLIC "-//W3C//DTD SVG 1.1//EN" "http://www.w3.org/Graphics/SVG/1.1/DTD/svg11.dtd">
<svg class="railroad-diagram" width="747.5" height="148" viewBox="0 0 747.5 148" id="into_positional" xmlns="http://www.w3.org/2000/svg" xmlns:xlink="http://www.w3.org/1999/xlink"><g transform="translate(.5 .5)"><g><path d="M20 37v20m0 -10h20"></path></g><g><path d="M40 47h0"></path><path d="M707.5 47h0"></path><path d="M40 47h20"></path><g><path d="M60 47h109"></path><g><path d="M169 47h10"></path><path d="M568.5 47h10"></path><g class="terminal "><path d="M179 47h0"></path><path d="M267 47h0"></path><rect x="179" y="36" width="88" height="22"></rect><text x="223" y="51">OUTPUT</text></g><path d="M267 47h10"></path><g><path d="M277 47h0"></path><path d="M388 47h0"></path><path d="M277 47a10 10 0 0 0 10 -10v-7a10 10 0 0 1 10 -10"></path><g><path d="M297 20h71"></path></g><path d="M368 20a10 10 0 0 1 10 10v7a10 10 0 0 0 10 10"></path><path d="M277 47h20"></path><g class="terminal "><path d="M297 47h0"></path><path d="M368 47h0"></path><rect x="297" y="36" width="71" height="22"></rect><text x="332.5" y="51">INTO</text></g><path d="M368 47h20"></path></g><path d="M388 47h10"></path><g class="non-terminal "><path d="M398 47h0"></path><path d="M477.5 47h0"></path><rect x="398" y="36" width="79.5" height="22" rx="10" ry="10"></rect><text x="437.75" y="51">ds_name</text></g><path d="M477.5 47h10"></path><path d="M487.5 47h10"></path><g class="terminal "><path d="M497.5 47h0"></path><path d="M568.5 47h0"></path><rect x="497.5" y="36" width="71" height="22"></rect><text x="533" y="51">*</text></g></g><path d="M578.5 47h109"></path></g><path d="M687.5 47h20"></path><path d="M40 47a10 10 0 0 1 10 10v34a10 10 0 0 0 10 10"></path><g><path d="M60 101h0"></path><g><path d="M60 101h10"></path><path d="M677.5 101h10"></path><g class="terminal "><path d="M70 101h0"></path><path d="M158 101h0"></path><rect x="70" y="90" width="88" height="22"></rect><text x="114" y="105">OUTPUT</text></g><path d="M158 101h10"></path><g><path d="M168 101h0"></path><path d="M279 101h0"></path><path d="M168 101a10 10 0 0 0 10 -10v-7a10 10 0 0 1 10 -10"></path><g><path d="M188 74h71"></path></g><path d="M259 74a10 10 0 0 1 10 10v7a10 10 0 0 0 10 10"></path><path d="M168 101h20"></path><g class="terminal "><path d="M188 101h0"></path><path d="M259 101h0"></path><rect x="188" y="90" width="71" height="22"></rect><text x="223.5" y="105">INTO</text></g><path d="M259 101h20"></path></g><path d="M279 101h10"></path><g class="non-terminal "><path d="M289 101h0"></path><path d="M368.5 101h0"></path><rect x="289" y="90" width="79.5" height="22" rx="10" ry="10"></rect><text x="328.75" y="105">ds_name</text></g><path d="M368.5 101h10"></path><g><path d="M378.5 101h0"></path><path d="M677.5 101h0"></path><path d="M378.5 101a10 10 0 0 0 10 -10v-7a10 10 0 0 1 10 -10"></path><g><path d="M398.5 74h259"></path></g><path d="M657.5 74a10 10 0 0 1 10 10v7a10 10 0 0 0 10 10"></path><path d="M378.5 101h20"></path><g><path d="M398.5 101h0"></path><path d="M657.5 101h0"></path><path d="M398.5 101h10"></path><g><path d="M408.5 101h0"></path><path d="M647.5 101h0"></path><path d="M408.5 101h20"></path><g><path d="M428.5 101h0"></path><g><path d="M428.5 101h10"></path><path d="M617.5 101h10"></path><g class="terminal "><path d="M438.5 101h0"></path><path d="M518 101h0"></path><rect x="438.5" y="90" width="79.5" height="22"></rect><text x="478.25" y="105">,</text></g><path d="M518 101h10"></path><path d="M528 101h10"></path><g class="non-terminal "><path d="M538 101h0"></path><path d="M617.5 101h0"></path><rect x="538" y="90" width="79.5" height="22" rx="10" ry="10"></rect><text x="577.75" y="105">ds_name</text></g></g><path d="M627.5 101h0"></path></g><path d="M627.5 101h20"></path></g><path d="M647.5 101h10"></path><path d="M408.5 101a10 10 0 0 0 -10 10v7a10 10 0 0 0 10 10"></path><g><path d="M408.5 128h239"></path></g><path d="M647.5 128a10 10 0 0 0 10 -10v-7a10 10 0 0 0 -10 -10"></path></g><path d="M657.5 101h20"></path></g></g><path d="M687.5 101h0"></path></g><path d="M687.5 101a10 10 0 0 0 10 -10v-34a10 10 0 0 1 10 -10"></path></g><path d="M 707.5 47 h 20 m 0 -10 v 20"></path></g><defs><style type="text/css">path {
stroke-width: 1.25;
stroke: #9cc2e5;
fill: rgba(0, 0, 0, 0);
}
text {
text-anchor: middle;
fill: #404040;
font-family: Calibri, Arial, sans-serif;
}
g.terminal text {
font-weight: bold;
}
g.non-terminal rect {
stroke-width: 1;
stroke: #9cc2e5;
fill: rgba(255, 255, 255, 1);
}
g.terminal rect {
stroke-width: 1;
stroke: #9cc2e5;
fill: rgba(255, 255, 255, 1);
}</style></defs></svg>