<?xml version="1.0" encoding="UTF-8" standalone="no"?>
<!DOCTYPE svg PUBLIC "-//W3C//DTD SVG 1.1//EN" "http://www.w3.org/Graphics/SVG/1.1/DTD/svg11.dtd">
<svg class="railroad-diagram" width="521.5" height="224" viewBox="0 0 521.5 224" id="join_op" xmlns="http://www.w3.org/2000/svg" xmlns:xlink="http://www.w3.org/1999/xlink"><g transform="translate(.5 .5)"><g><path d="M20 37v20m0 -10h20"></path></g><g><path d="M40 47h0"></path><path d="M481.5 47h0"></path><path d="M40 47h20"></path><g><path d="M60 47h0"></path><g><path d="M60 47h10"></path><path d="M451.5 47h10"></path><g><path d="M70 47h0"></path><path d="M370.5 47h0"></path><path d="M70 47a10 10 0 0 0 10 -10v-7a10 10 0 0 1 10 -10"></path><g><path d="M90 20h260.5"></path></g><path d="M350.5 20a10 10 0 0 1 10 10v7a10 10 0 0 0 10 10"></path><path d="M70 47h20"></path><g><path d="M90 47h0"></path><path d="M350.5 47h0"></path><path d="M90 47h20"></path><g><path d="M110 47h60.5"></path><g><path d="M170.5 47h10"></path><path d="M260 47h10"></path><g class="terminal "><path d="M180.5 47h0"></path><path d="M260 47h0"></path><rect x="180.5" y="36" width="79.5" height="22"></rect><text x="220.25" y="51">INNER</text></g></g><path d="M270 47h60.5"></path></g><path d="M330.5 47h20"></path><path d="M90 47a10 10 0 0 1 10 10v34a10 10 0 0 0 10 10"></path><g><path d="M110 101h4.25"></path><g><path d="M114.25 101h10"></path><path d="M316.25 101h10"></path><g class="terminal "><path d="M124.25 101h0"></path><path d="M195.25 101h0"></path><rect x="124.25" y="90" width="71" height="22"></rect><text x="159.75" y="105">LEFT</text></g><path d="M195.25 101h10"></path><g><path d="M205.25 101h0"></path><path d="M316.25 101h0"></path><path d="M205.25 101a10 10 0 0 0 10 -10v-7a10 10 0 0 1 10 -10"></path><g><path d="M225.25 74h71"></path></g><path d="M296.25 74a10 10 0 0 1 10 10v7a10 10 0 0 0 10 10"></path><path d="M205.25 101h20"></path><g class="terminal "><path d="M225.25 101h0"></path><path d="M296.25 101h0"></path><rect x="225.25" y="90" width="71" height="22"></rect><text x="260.75" y="105">ANTI</text></g><path d="M296.25 101h20"></path></g></g><path d="M326.25 101h4.25"></path></g><path d="M330.5 101a10 10 0 0 0 10 -10v-34a10 10 0 0 1 10 -10"></path><path d="M90 47a10 10 0 0 1 10 10v88a10 10 0 0 0 10 10"></path><g><path d="M110 155h0"></path><g><path d="M110 155h10"></path><path d="M320.5 155h10"></path><g class="terminal "><path d="M120 155h0"></path><path d="M199.5 155h0"></path><rect x="120" y="144" width="79.5" height="22"></rect><text x="159.75" y="159">RIGHT</text></g><path d="M199.5 155h10"></path><g><path d="M209.5 155h0"></path><path d="M320.5 155h0"></path><path d="M209.5 155a10 10 0 0 0 10 -10v-7a10 10 0 0 1 10 -10"></path><g><path d="M229.5 128h71"></path></g><path d="M300.5 128a10 10 0 0 1 10 10v7a10 10 0 0 0 10 10"></path><path d="M209.5 155h20"></path><g class="terminal "><path d="M229.5 155h0"></path><path d="M300.5 155h0"></path><rect x="229.5" y="144" width="71" height="22"></rect><text x="265" y="159">ANTI</text></g><path d="M300.5 155h20"></path></g></g><path d="M330.5 155h0"></path></g><path d="M330.5 155a10 10 0 0 0 10 -10v-88a10 10 0 0 1 10 -10"></path><path d="M90 47a10 10 0 0 1 10 10v126a10 10 0 0 0 10 10"></path><g><path d="M110 193h60.5"></path><g><path d="M170.5 193h10"></path><path d="M260 193h10"></path><g class="terminal "><path d="M180.5 193h0"></path><path d="M260 193h0"></path><rect x="180.5" y="182" width="79.5" height="22"></rect><text x="220.25" y="197">OUTER</text></g></g><path d="M270 193h60.5"></path></g><path d="M330.5 193a10 10 0 0 0 10 -10v-126a10 10 0 0 1 10 -10"></path></g><path d="M350.5 47h20"></path></g><path d="M370.5 47h10"></path><g class="terminal "><path d="M380.5 47h0"></path><path d="M451.5 47h0"></path><rect x="380.5" y="36" width="71" height="22"></rect><text x="416" y="51">JOIN</text></g></g><path d="M461.5 47h0"></path></g><path d="M461.5 47h20"></path></g><path d="M 481.5 47 h 20 m 0 -10 v 20"></path></g><defs><style type="text/css">path {
stroke-width: 1.25;
stroke: #9cc2e5;
fill: rgba(0, 0, 0, 0);
}
text {
text-anchor: middle;
fill: #404040;
font-family: Calibri, Arial, sans-serif;
}
g.terminal text {
font-weight: bold;
}
g.non-terminal rect {
stroke-width: 1;
stroke: #9cc2e5;
fill: rgba(255, 255, 255, 1);
}
g.terminal rect {
stroke-width: 1;
stroke: #9cc2e5;
fill: rgba(255, 255, 255, 1);
}</style></defs></svg>