<?xml version="1.0" encoding="UTF-8" standalone="no"?>
<!DOCTYPE svg PUBLIC "-//W3C//DTD SVG 1.1//EN" "http://www.w3.org/Graphics/SVG/1.1/DTD/svg11.dtd">
<svg class="railroad-diagram" width="236.5" height="214" viewBox="0 0 236.5 214" id="literal" xmlns="http://www.w3.org/2000/svg" xmlns:xlink="http://www.w3.org/1999/xlink"><g transform="translate(.5 .5)"><g><path d="M20 21v20m0 -10h20"></path></g><g><path d="M40 31h0"></path><path d="M196.5 31h0"></path><path d="M40 31h20"></path><g><path d="M60 31h4.25"></path><g><path d="M64.25 31h10"></path><path d="M162.25 31h10"></path><g class="terminal "><path d="M74.25 31h0"></path><path d="M162.25 31h0"></path><rect x="74.25" y="20" width="88" height="22"></rect><text x="118.25" y="35">String</text></g></g><path d="M172.25 31h4.25"></path></g><path d="M176.5 31h20"></path><path d="M40 31a10 10 0 0 1 10 10v18a10 10 0 0 0 10 10"></path><g><path d="M60 69h0"></path><g><path d="M60 69h10"></path><path d="M166.5 69h10"></path><g class="terminal "><path d="M70 69h0"></path><path d="M166.5 69h0"></path><rect x="70" y="58" width="96.5" height="22"></rect><text x="118.25" y="73">Number</text></g></g><path d="M176.5 69h0"></path></g><path d="M176.5 69a10 10 0 0 0 10 -10v-18a10 10 0 0 1 10 -10"></path><path d="M40 31a10 10 0 0 1 10 10v56a10 10 0 0 0 10 10"></path><g><path d="M60 107h12.75"></path><g><path d="M72.75 107h10"></path><path d="M153.75 107h10"></path><g class="terminal "><path d="M82.75 107h0"></path><path d="M153.75 107h0"></path><rect x="82.75" y="96" width="71" height="22"></rect><text x="118.25" y="111">TRUE</text></g></g><path d="M163.75 107h12.75"></path></g><path d="M176.5 107a10 10 0 0 0 10 -10v-56a10 10 0 0 1 10 -10"></path><path d="M40 31a10 10 0 0 1 10 10v94a10 10 0 0 0 10 10"></path><g><path d="M60 145h8.5"></path><g><path d="M68.5 145h10"></path><path d="M158 145h10"></path><g class="terminal "><path d="M78.5 145h0"></path><path d="M158 145h0"></path><rect x="78.5" y="134" width="79.5" height="22"></rect><text x="118.25" y="149">FALSE</text></g></g><path d="M168 145h8.5"></path></g><path d="M176.5 145a10 10 0 0 0 10 -10v-94a10 10 0 0 1 10 -10"></path><path d="M40 31a10 10 0 0 1 10 10v132a10 10 0 0 0 10 10"></path><g><path d="M60 183h12.75"></path><g><path d="M72.75 183h10"></path><path d="M153.75 183h10"></path><g class="terminal "><path d="M82.75 183h0"></path><path d="M153.75 183h0"></path><rect x="82.75" y="172" width="71" height="22"></rect><text x="118.25" y="187">NULL</text></g></g><path d="M163.75 183h12.75"></path></g><path d="M176.5 183a10 10 0 0 0 10 -10v-132a10 10 0 0 1 10 -10"></path></g><path d="M 196.5 31 h 20 m 0 -10 v 20"></path></g><defs><style type="text/css">path {
stroke-width: 1.25;
stroke: #9cc2e5;
fill: rgba(0, 0, 0, 0);
}
text {
text-anchor: middle;
fill: #404040;
font-family: Calibri, Arial, sans-serif;
}
g.terminal text {
font-weight: bold;
}
g.non-terminal rect {
stroke-width: 1;
stroke: #9cc2e5;
fill: rgba(255, 255, 255, 1);
}
g.terminal rect {
stroke-width: 1;
stroke: #9cc2e5;
fill: rgba(255, 255, 255, 1);
}</style></defs></svg>