<?xml version="1.0" encoding="UTF-8" standalone="no"?>
<!DOCTYPE svg PUBLIC "-//W3C//DTD SVG 1.1//EN" "http://www.w3.org/Graphics/SVG/1.1/DTD/svg11.dtd">
<svg class="railroad-diagram" width="1262" height="78" viewBox="0 0 1262 78" id="loop_stmt" xmlns="http://www.w3.org/2000/svg" xmlns:xlink="http://www.w3.org/1999/xlink"><g transform="translate(.5 .5)"><g><path d="M20 37v20m0 -10h20"></path></g><g><path d="M40 47h0"></path><path d="M1222 47h0"></path><path d="M40 47h20"></path><g><path d="M60 47h0"></path><g><path d="M60 47h10"></path><path d="M1192 47h10"></path><g class="terminal "><path d="M70 47h0"></path><path d="M141 47h0"></path><rect x="70" y="36" width="71" height="22"></rect><text x="105.5" y="51">LOOP</text></g><path d="M141 47h10"></path><path d="M151 47h10"></path><g class="non-terminal "><path d="M161 47h0"></path><path d="M249 47h0"></path><rect x="161" y="36" width="88" height="22" rx="10" ry="10"></rect><text x="205" y="51">var_name</text></g><path d="M249 47h10"></path><g><path d="M259 47h0"></path><path d="M353 47h0"></path><path d="M259 47a10 10 0 0 0 10 -10v-7a10 10 0 0 1 10 -10"></path><g><path d="M279 20h54"></path></g><path d="M333 20a10 10 0 0 1 10 10v7a10 10 0 0 0 10 10"></path><path d="M259 47h20"></path><g class="terminal "><path d="M279 47h0"></path><path d="M333 47h0"></path><rect x="279" y="36" width="54" height="22"></rect><text x="306" y="51">IN</text></g><path d="M333 47h20"></path></g><path d="M353 47h10"></path><g class="non-terminal "><path d="M363 47h0"></path><path d="M468 47h0"></path><rect x="363" y="36" width="105" height="22" rx="10" ry="10"></rect><text x="415.5" y="51">expression</text></g><path d="M468 47h10"></path><path d="M478 47h10"></path><g class="terminal "><path d="M488 47h0"></path><path d="M567.5 47h0"></path><rect x="488" y="36" width="79.5" height="22"></rect><text x="527.75" y="51">BEGIN</text></g><path d="M567.5 47h10"></path><path d="M577.5 47h10"></path><g class="non-terminal "><path d="M587.5 47h0"></path><path d="M692.5 47h0"></path><rect x="587.5" y="36" width="105" height="22" rx="10" ry="10"></rect><text x="640" y="51">statements</text></g><path d="M692.5 47h10"></path><g><path d="M702.5 47h0"></path><path d="M998.5 47h0"></path><path d="M702.5 47a10 10 0 0 0 10 -10v-7a10 10 0 0 1 10 -10"></path><g><path d="M722.5 20h256"></path></g><path d="M978.5 20a10 10 0 0 1 10 10v7a10 10 0 0 0 10 10"></path><path d="M702.5 47h20"></path><g><path d="M722.5 47h0"></path><path d="M978.5 47h0"></path><path d="M722.5 47h20"></path><g><path d="M742.5 47h0"></path><g><path d="M742.5 47h10"></path><path d="M948.5 47h10"></path><g class="terminal "><path d="M752.5 47h0"></path><path d="M823.5 47h0"></path><rect x="752.5" y="36" width="71" height="22"></rect><text x="788" y="51">ELSE</text></g><path d="M823.5 47h10"></path><path d="M833.5 47h10"></path><g class="non-terminal "><path d="M843.5 47h0"></path><path d="M948.5 47h0"></path><rect x="843.5" y="36" width="105" height="22" rx="10" ry="10"></rect><text x="896" y="51">statements</text></g></g><path d="M958.5 47h0"></path></g><path d="M958.5 47h20"></path></g><path d="M978.5 47h20"></path></g><path d="M998.5 47h10"></path><g class="terminal "><path d="M1008.5 47h0"></path><path d="M1071 47h0"></path><rect x="1008.5" y="36" width="62.5" height="22"></rect><text x="1039.75" y="51">END</text></g><path d="M1071 47h10"></path><g><path d="M1081 47h0"></path><path d="M1192 47h0"></path><path d="M1081 47a10 10 0 0 0 10 -10v-7a10 10 0 0 1 10 -10"></path><g><path d="M1101 20h71"></path></g><path d="M1172 20a10 10 0 0 1 10 10v7a10 10 0 0 0 10 10"></path><path d="M1081 47h20"></path><g class="terminal "><path d="M1101 47h0"></path><path d="M1172 47h0"></path><rect x="1101" y="36" width="71" height="22"></rect><text x="1136.5" y="51">LOOP</text></g><path d="M1172 47h20"></path></g></g><path d="M1202 47h0"></path></g><path d="M1202 47h20"></path></g><path d="M 1222 47 h 20 m 0 -10 v 20"></path></g><defs><style type="text/css">path {
stroke-width: 1.25;
stroke: #9cc2e5;
fill: rgba(0, 0, 0, 0);
}
text {
text-anchor: middle;
fill: #404040;
font-family: Calibri, Arial, sans-serif;
}
g.terminal text {
font-weight: bold;
}
g.non-terminal rect {
stroke-width: 1;
stroke: #9cc2e5;
fill: rgba(255, 255, 255, 1);
}
g.terminal rect {
stroke-width: 1;
stroke: #9cc2e5;
fill: rgba(255, 255, 255, 1);
}</style></defs></svg>