<?xml version="1.0" encoding="UTF-8" standalone="no"?>
<!DOCTYPE svg PUBLIC "-//W3C//DTD SVG 1.1//EN" "http://www.w3.org/Graphics/SVG/1.1/DTD/svg11.dtd">
<svg class="railroad-diagram" width="370" height="62" viewBox="0 0 370 62" id="options_stmt" xmlns="http://www.w3.org/2000/svg" xmlns:xlink="http://www.w3.org/1999/xlink"><g transform="translate(.5 .5)"><g><path d="M20 21v20m0 -10h20"></path></g><g><path d="M40 31h0"></path><path d="M330 31h0"></path><path d="M40 31h20"></path><g><path d="M60 31h0"></path><g><path d="M60 31h10"></path><path d="M300 31h10"></path><g class="terminal "><path d="M70 31h0"></path><path d="M166.5 31h0"></path><rect x="70" y="20" width="96.5" height="22"></rect><text x="118.25" y="35">OPTIONS</text></g><path d="M166.5 31h10"></path><path d="M176.5 31h10"></path><g class="non-terminal "><path d="M186.5 31h0"></path><path d="M300 31h0"></path><rect x="186.5" y="20" width="113.5" height="22" rx="10" ry="10"></rect><text x="243.25" y="35">params_expr</text></g></g><path d="M310 31h0"></path></g><path d="M310 31h20"></path></g><path d="M 330 31 h 20 m 0 -10 v 20"></path></g><defs><style type="text/css">path {
stroke-width: 1.25;
stroke: #9cc2e5;
fill: rgba(0, 0, 0, 0);
}
text {
text-anchor: middle;
fill: #404040;
font-family: Calibri, Arial, sans-serif;
}
g.terminal text {
font-weight: bold;
}
g.non-terminal rect {
stroke-width: 1;
stroke: #9cc2e5;
fill: rgba(255, 255, 255, 1);
}
g.terminal rect {
stroke-width: 1;
stroke: #9cc2e5;
fill: rgba(255, 255, 255, 1);
}</style></defs></svg>