<?xml version="1.0" encoding="UTF-8" standalone="no"?>
<!DOCTYPE svg PUBLIC "-//W3C//DTD SVG 1.1//EN" "http://www.w3.org/Graphics/SVG/1.1/DTD/svg11.dtd">
<svg class="railroad-diagram" width="336" height="100" viewBox="0 0 336 100" id="proc_param" xmlns="http://www.w3.org/2000/svg" xmlns:xlink="http://www.w3.org/1999/xlink"><g transform="translate(.5 .5)"><g><path d="M20 21v20m0 -10h20"></path></g><g><path d="M40 31h0"></path><path d="M296 31h0"></path><path d="M40 31h20"></path><g><path d="M60 31h66.75"></path><g><path d="M126.75 31h10"></path><path d="M199.25 31h10"></path><g class="non-terminal "><path d="M136.75 31h0"></path><path d="M199.25 31h0"></path><rect x="136.75" y="20" width="62.5" height="22" rx="10" ry="10"></rect><text x="168" y="35">param</text></g></g><path d="M209.25 31h66.75"></path></g><path d="M276 31h20"></path><path d="M40 31a10 10 0 0 1 10 10v18a10 10 0 0 0 10 10"></path><g><path d="M60 69h0"></path><g><path d="M60 69h10"></path><path d="M266 69h10"></path><g class="terminal "><path d="M70 69h0"></path><path d="M124 69h0"></path><rect x="70" y="58" width="54" height="22"></rect><text x="97" y="73">@</text></g><path d="M124 69h10"></path><path d="M134 69h10"></path><g class="terminal "><path d="M144 69h0"></path><path d="M266 69h0"></path><rect x="144" y="58" width="122" height="22"></rect><text x="205" y="73">Name</text></g></g><path d="M276 69h0"></path></g><path d="M276 69a10 10 0 0 0 10 -10v-18a10 10 0 0 1 10 -10"></path></g><path d="M 296 31 h 20 m 0 -10 v 20"></path></g><defs><style type="text/css">path {
stroke-width: 1.25;
stroke: #9cc2e5;
fill: rgba(0, 0, 0, 0);
}
text {
text-anchor: middle;
fill: #404040;
font-family: Calibri, Arial, sans-serif;
}
g.terminal text {
font-weight: bold;
}
g.non-terminal rect {
stroke-width: 1;
stroke: #9cc2e5;
fill: rgba(255, 255, 255, 1);
}
g.terminal rect {
stroke-width: 1;
stroke: #9cc2e5;
fill: rgba(255, 255, 255, 1);
}</style></defs></svg>