<?xml version="1.0" encoding="UTF-8" standalone="no"?>
<!DOCTYPE svg PUBLIC "-//W3C//DTD SVG 1.1//EN" "http://www.w3.org/Graphics/SVG/1.1/DTD/svg11.dtd">
<svg class="railroad-diagram" width="472.5" height="78" viewBox="0 0 472.5 78" xmlns="http://www.w3.org/2000/svg" xmlns:xlink="http://www.w3.org/1999/xlink"><g transform="translate(.5 .5)"><g><path d="M20 37v20m0 -10h20"></path></g><g><path d="M40 47h0"></path><path d="M432.5 47h0"></path><path d="M40 47h20"></path><g><path d="M60 47h0"></path><g><path d="M60 47h10"></path><path d="M402.5 47h10"></path><g class="terminal "><path d="M70 47h0"></path><path d="M149.5 47h0"></path><rect x="70" y="36" width="79.5" height="22"></rect><text x="109.75" y="51">RAISE</text></g><path d="M149.5 47h10"></path><g><path d="M159.5 47h0"></path><path d="M287.5 47h0"></path><path d="M159.5 47a10 10 0 0 0 10 -10v-7a10 10 0 0 1 10 -10"></path><g><path d="M179.5 20h88"></path></g><path d="M267.5 20a10 10 0 0 1 10 10v7a10 10 0 0 0 10 10"></path><path d="M159.5 47h20"></path><g class="terminal "><path d="M179.5 47h0"></path><path d="M267.5 47h0"></path><rect x="179.5" y="36" width="88" height="22"></rect><text x="223.5" y="51">Level</text></g><path d="M267.5 47h20"></path></g><path d="M287.5 47h10"></path><g class="non-terminal "><path d="M297.5 47h0"></path><path d="M402.5 47h0"></path><rect x="297.5" y="36" width="105" height="22" rx="10" ry="10"></rect><text x="350" y="51">expression</text></g></g><path d="M412.5 47h0"></path></g><path d="M412.5 47h20"></path></g><path d="M 432.5 47 h 20 m 0 -10 v 20"></path></g><defs><style type="text/css">path {
stroke-width: 1.25;
stroke: #9cc2e5;
fill: rgba(0, 0, 0, 0);
}
text {
text-anchor: middle;
fill: #404040;
font-family: Calibri, Arial, sans-serif;
}
g.terminal text {
font-weight: bold;
}
g.non-terminal rect {
stroke-width: 1;
stroke: #9cc2e5;
fill: rgba(255, 255, 255, 1);
}
g.terminal rect {
stroke-width: 1;
stroke: #9cc2e5;
fill: rgba(255, 255, 255, 1);
}</style></defs></svg>