<?xml version="1.0" encoding="UTF-8" standalone="no"?>
<!DOCTYPE svg PUBLIC "-//W3C//DTD SVG 1.1//EN" "http://www.w3.org/Graphics/SVG/1.1/DTD/svg11.dtd">
<svg class="railroad-diagram" width="353" height="62" viewBox="0 0 353 62" id="return_func" xmlns="http://www.w3.org/2000/svg" xmlns:xlink="http://www.w3.org/1999/xlink"><g transform="translate(.5 .5)"><g><path d="M20 21v20m0 -10h20"></path></g><g><path d="M40 31h0"></path><path d="M313 31h0"></path><path d="M40 31h20"></path><g><path d="M60 31h0"></path><g><path d="M60 31h10"></path><path d="M283 31h10"></path><g class="terminal "><path d="M70 31h0"></path><path d="M158 31h0"></path><rect x="70" y="20" width="88" height="22"></rect><text x="114" y="35">RETURN</text></g><path d="M158 31h10"></path><path d="M168 31h10"></path><g class="non-terminal "><path d="M178 31h0"></path><path d="M283 31h0"></path><rect x="178" y="20" width="105" height="22" rx="10" ry="10"></rect><text x="230.5" y="35">expression</text></g></g><path d="M293 31h0"></path></g><path d="M293 31h20"></path></g><path d="M 313 31 h 20 m 0 -10 v 20"></path></g><defs><style type="text/css">path {
stroke-width: 1.25;
stroke: #9cc2e5;
fill: rgba(0, 0, 0, 0);
}
text {
text-anchor: middle;
fill: #404040;
font-family: Calibri, Arial, sans-serif;
}
g.terminal text {
font-weight: bold;
}
g.non-terminal rect {
stroke-width: 1;
stroke: #9cc2e5;
fill: rgba(255, 255, 255, 1);
}
g.terminal rect {
stroke-width: 1;
stroke: #9cc2e5;
fill: rgba(255, 255, 255, 1);
}</style></defs></svg>