<?xml version="1.0" encoding="UTF-8" standalone="no"?>
<!DOCTYPE svg PUBLIC "-//W3C//DTD SVG 1.1//EN" "http://www.w3.org/Graphics/SVG/1.1/DTD/svg11.dtd">
<svg class="railroad-diagram" width="310.5" height="62" viewBox="0 0 310.5 62" id="script" xmlns="http://www.w3.org/2000/svg" xmlns:xlink="http://www.w3.org/1999/xlink"><g transform="translate(.5 .5)"><g><path d="M20 21v20m0 -10h20"></path></g><g><path d="M40 31h0"></path><path d="M270.5 31h0"></path><path d="M40 31h20"></path><g><path d="M60 31h0"></path><g><path d="M60 31h10"></path><path d="M240.5 31h10"></path><g class="non-terminal "><path d="M70 31h0"></path><path d="M175 31h0"></path><rect x="70" y="20" width="105" height="22" rx="10" ry="10"></rect><text x="122.5" y="35">statements</text></g><path d="M175 31h10"></path><path d="M185 31h10"></path><g class="terminal "><path d="M195 31h0"></path><path d="M240.5 31h0"></path><rect x="195" y="20" width="45.5" height="22"></rect><text x="217.75" y="35">EOF</text></g></g><path d="M250.5 31h0"></path></g><path d="M250.5 31h20"></path></g><path d="M 270.5 31 h 20 m 0 -10 v 20"></path></g><defs><style type="text/css">path {
stroke-width: 1.25;
stroke: #9cc2e5;
fill: rgba(0, 0, 0, 0);
}
text {
text-anchor: middle;
fill: #404040;
font-family: Calibri, Arial, sans-serif;
}
g.terminal text {
font-weight: bold;
}
g.non-terminal rect {
stroke-width: 1;
stroke: #9cc2e5;
fill: rgba(255, 255, 255, 1);
}
g.terminal rect {
stroke-width: 1;
stroke: #9cc2e5;
fill: rgba(255, 255, 255, 1);
}</style></defs></svg>