<?xml version="1.0" encoding="UTF-8" standalone="no"?>
<!DOCTYPE svg PUBLIC "-//W3C//DTD SVG 1.1//EN" "http://www.w3.org/Graphics/SVG/1.1/DTD/svg11.dtd">
<svg class="railroad-diagram" width="1921" height="148" viewBox="0 0 1921 148" id="select_stmt" xmlns="http://www.w3.org/2000/svg" xmlns:xlink="http://www.w3.org/1999/xlink"><g transform="translate(.5 .5)"><g><path d="M20 37v20m0 -10h20"></path></g><g><path d="M40 47h0"></path><path d="M1881 47h0"></path><path d="M40 47h20"></path><g><path d="M60 47h0"></path><g><path d="M60 47h10"></path><path d="M1851 47h10"></path><g class="terminal "><path d="M70 47h0"></path><path d="M158 47h0"></path><rect x="70" y="36" width="88" height="22"></rect><text x="114" y="51">SELECT</text></g><path d="M158 47h10"></path><g><path d="M168 47h0"></path><path d="M313 47h0"></path><path d="M168 47a10 10 0 0 0 10 -10v-7a10 10 0 0 1 10 -10"></path><g><path d="M188 20h105"></path></g><path d="M293 20a10 10 0 0 1 10 10v7a10 10 0 0 0 10 10"></path><path d="M168 47h20"></path><g class="terminal "><path d="M188 47h0"></path><path d="M293 47h0"></path><rect x="188" y="36" width="105" height="22"></rect><text x="240.5" y="51">DISTINCT</text></g><path d="M293 47h20"></path></g><g><path d="M313 47h0"></path><path d="M795.5 47h0"></path><path d="M313 47h20"></path><g><path d="M333 47h175.75"></path><g><path d="M508.75 47h10"></path><path d="M589.75 47h10"></path><g class="terminal "><path d="M518.75 47h0"></path><path d="M589.75 47h0"></path><rect x="518.75" y="36" width="71" height="22"></rect><text x="554.25" y="51">*</text></g></g><path d="M599.75 47h175.75"></path></g><path d="M775.5 47h20"></path><path d="M313 47a10 10 0 0 1 10 10v34a10 10 0 0 0 10 10"></path><g><path d="M333 101h0"></path><g><path d="M333 101h10"></path><path d="M765.5 101h10"></path><g class="non-terminal "><path d="M343 101h0"></path><path d="M439.5 101h0"></path><rect x="343" y="90" width="96.5" height="22" rx="10" ry="10"></rect><text x="391.25" y="105">what_expr</text></g><path d="M439.5 101h10"></path><g><path d="M449.5 101h0"></path><path d="M765.5 101h0"></path><path d="M449.5 101a10 10 0 0 0 10 -10v-7a10 10 0 0 1 10 -10"></path><g><path d="M469.5 74h276"></path></g><path d="M745.5 74a10 10 0 0 1 10 10v7a10 10 0 0 0 10 10"></path><path d="M449.5 101h20"></path><g><path d="M469.5 101h0"></path><path d="M745.5 101h0"></path><path d="M469.5 101h10"></path><g><path d="M479.5 101h0"></path><path d="M735.5 101h0"></path><path d="M479.5 101h20"></path><g><path d="M499.5 101h0"></path><g><path d="M499.5 101h10"></path><path d="M705.5 101h10"></path><g class="terminal "><path d="M509.5 101h0"></path><path d="M589 101h0"></path><rect x="509.5" y="90" width="79.5" height="22"></rect><text x="549.25" y="105">,</text></g><path d="M589 101h10"></path><path d="M599 101h10"></path><g class="non-terminal "><path d="M609 101h0"></path><path d="M705.5 101h0"></path><rect x="609" y="90" width="96.5" height="22" rx="10" ry="10"></rect><text x="657.25" y="105">what_expr</text></g></g><path d="M715.5 101h0"></path></g><path d="M715.5 101h20"></path></g><path d="M735.5 101h10"></path><path d="M479.5 101a10 10 0 0 0 -10 10v7a10 10 0 0 0 10 10"></path><g><path d="M479.5 128h256"></path></g><path d="M735.5 128a10 10 0 0 0 10 -10v-7a10 10 0 0 0 -10 -10"></path></g><path d="M745.5 101h20"></path></g></g><path d="M775.5 101h0"></path></g><path d="M775.5 101a10 10 0 0 0 10 -10v-34a10 10 0 0 1 10 -10"></path></g><g><path d="M795.5 47h0"></path><path d="M1242 47h0"></path><path d="M795.5 47h20"></path><g><path d="M815.5 47h0"></path><g><path d="M815.5 47h10"></path><path d="M1212 47h10"></path><g class="terminal "><path d="M825.5 47h0"></path><path d="M896.5 47h0"></path><rect x="825.5" y="36" width="71" height="22"></rect><text x="861" y="51">INTO</text></g><path d="M896.5 47h10"></path><path d="M906.5 47h10"></path><g class="non-terminal "><path d="M916.5 47h0"></path><path d="M996 47h0"></path><rect x="916.5" y="36" width="79.5" height="22" rx="10" ry="10"></rect><text x="956.25" y="51">ds_name</text></g><path d="M996 47h10"></path><path d="M1006 47h10"></path><g class="terminal "><path d="M1016 47h0"></path><path d="M1087 47h0"></path><rect x="1016" y="36" width="71" height="22"></rect><text x="1051.5" y="51">FROM</text></g><path d="M1087 47h10"></path><path d="M1097 47h10"></path><g class="non-terminal "><path d="M1107 47h0"></path><path d="M1212 47h0"></path><rect x="1107" y="36" width="105" height="22" rx="10" ry="10"></rect><text x="1159.5" y="51">from_scope</text></g></g><path d="M1222 47h0"></path></g><path d="M1222 47h20"></path><path d="M795.5 47a10 10 0 0 1 10 10v18a10 10 0 0 0 10 10"></path><g><path d="M815.5 85h0"></path><g><path d="M815.5 85h10"></path><path d="M1212 85h10"></path><g class="terminal "><path d="M825.5 85h0"></path><path d="M896.5 85h0"></path><rect x="825.5" y="74" width="71" height="22"></rect><text x="861" y="89">FROM</text></g><path d="M896.5 85h10"></path><path d="M906.5 85h10"></path><g class="non-terminal "><path d="M916.5 85h0"></path><path d="M1021.5 85h0"></path><rect x="916.5" y="74" width="105" height="22" rx="10" ry="10"></rect><text x="969" y="89">from_scope</text></g><path d="M1021.5 85h10"></path><path d="M1031.5 85h10"></path><g class="terminal "><path d="M1041.5 85h0"></path><path d="M1112.5 85h0"></path><rect x="1041.5" y="74" width="71" height="22"></rect><text x="1077" y="89">INTO</text></g><path d="M1112.5 85h10"></path><path d="M1122.5 85h10"></path><g class="non-terminal "><path d="M1132.5 85h0"></path><path d="M1212 85h0"></path><rect x="1132.5" y="74" width="79.5" height="22" rx="10" ry="10"></rect><text x="1172.25" y="89">ds_name</text></g></g><path d="M1222 85h0"></path></g><path d="M1222 85a10 10 0 0 0 10 -10v-18a10 10 0 0 1 10 -10"></path></g><g><path d="M1242 47h0"></path><path d="M1546.5 47h0"></path><path d="M1242 47a10 10 0 0 0 10 -10v-7a10 10 0 0 1 10 -10"></path><g><path d="M1262 20h264.5"></path></g><path d="M1526.5 20a10 10 0 0 1 10 10v7a10 10 0 0 0 10 10"></path><path d="M1242 47h20"></path><g><path d="M1262 47h0"></path><path d="M1526.5 47h0"></path><path d="M1262 47h20"></path><g><path d="M1282 47h0"></path><g><path d="M1282 47h10"></path><path d="M1496.5 47h10"></path><g class="terminal "><path d="M1292 47h0"></path><path d="M1371.5 47h0"></path><rect x="1292" y="36" width="79.5" height="22"></rect><text x="1331.75" y="51">WHERE</text></g><path d="M1371.5 47h10"></path><path d="M1381.5 47h10"></path><g class="non-terminal "><path d="M1391.5 47h0"></path><path d="M1496.5 47h0"></path><rect x="1391.5" y="36" width="105" height="22" rx="10" ry="10"></rect><text x="1444" y="51">where_expr</text></g></g><path d="M1506.5 47h0"></path></g><path d="M1506.5 47h20"></path></g><path d="M1526.5 47h20"></path></g><g><path d="M1546.5 47h0"></path><path d="M1851 47h0"></path><path d="M1546.5 47a10 10 0 0 0 10 -10v-7a10 10 0 0 1 10 -10"></path><g><path d="M1566.5 20h264.5"></path></g><path d="M1831 20a10 10 0 0 1 10 10v7a10 10 0 0 0 10 10"></path><path d="M1546.5 47h20"></path><g><path d="M1566.5 47h0"></path><path d="M1831 47h0"></path><path d="M1566.5 47h20"></path><g><path d="M1586.5 47h0"></path><g><path d="M1586.5 47h10"></path><path d="M1801 47h10"></path><g class="terminal "><path d="M1596.5 47h0"></path><path d="M1676 47h0"></path><rect x="1596.5" y="36" width="79.5" height="22"></rect><text x="1636.25" y="51">LIMIT</text></g><path d="M1676 47h10"></path><path d="M1686 47h10"></path><g class="non-terminal "><path d="M1696 47h0"></path><path d="M1801 47h0"></path><rect x="1696" y="36" width="105" height="22" rx="10" ry="10"></rect><text x="1748.5" y="51">limit_expr</text></g></g><path d="M1811 47h0"></path></g><path d="M1811 47h20"></path></g><path d="M1831 47h20"></path></g></g><path d="M1861 47h0"></path></g><path d="M1861 47h20"></path></g><path d="M 1881 47 h 20 m 0 -10 v 20"></path></g><defs><style type="text/css">path {
stroke-width: 1.25;
stroke: #9cc2e5;
fill: rgba(0, 0, 0, 0);
}
text {
text-anchor: middle;
fill: #404040;
font-family: Calibri, Arial, sans-serif;
}
g.terminal text {
font-weight: bold;
}
g.non-terminal rect {
stroke-width: 1;
stroke: #9cc2e5;
fill: rgba(255, 255, 255, 1);
}
g.terminal rect {
stroke-width: 1;
stroke: #9cc2e5;
fill: rgba(255, 255, 255, 1);
}</style></defs></svg>