<?xml version="1.0" encoding="UTF-8" standalone="no"?>
<!DOCTYPE svg PUBLIC "-//W3C//DTD SVG 1.1//EN" "http://www.w3.org/Graphics/SVG/1.1/DTD/svg11.dtd">
<svg class="railroad-diagram" width="279" height="556" viewBox="0 0 279 556" id="statement" xmlns="http://www.w3.org/2000/svg" xmlns:xlink="http://www.w3.org/1999/xlink"><g transform="translate(.5 .5)"><g><path d="M20 21v20m0 -10h20"></path></g><g><path d="M40 31h0"></path><path d="M239 31h0"></path><path d="M40 31h20"></path><g><path d="M60 31h12.75"></path><g><path d="M72.75 31h10"></path><path d="M196.25 31h10"></path><g class="non-terminal "><path d="M82.75 31h0"></path><path d="M196.25 31h0"></path><rect x="82.75" y="20" width="113.5" height="22" rx="10" ry="10"></rect><text x="139.5" y="35">create_stmt</text></g></g><path d="M206.25 31h12.75"></path></g><path d="M219 31h20"></path><path d="M40 31a10 10 0 0 1 10 10v18a10 10 0 0 0 10 10"></path><g><path d="M60 69h0"></path><g><path d="M60 69h10"></path><path d="M209 69h10"></path><g class="non-terminal "><path d="M70 69h0"></path><path d="M209 69h0"></path><rect x="70" y="58" width="139" height="22" rx="10" ry="10"></rect><text x="139.5" y="73">transform_stmt</text></g></g><path d="M219 69h0"></path></g><path d="M219 69a10 10 0 0 0 10 -10v-18a10 10 0 0 1 10 -10"></path><path d="M40 31a10 10 0 0 1 10 10v56a10 10 0 0 0 10 10"></path><g><path d="M60 107h21.25"></path><g><path d="M81.25 107h10"></path><path d="M187.75 107h10"></path><g class="non-terminal "><path d="M91.25 107h0"></path><path d="M187.75 107h0"></path><rect x="91.25" y="96" width="96.5" height="22" rx="10" ry="10"></rect><text x="139.5" y="111">copy_stmt</text></g></g><path d="M197.75 107h21.25"></path></g><path d="M219 107a10 10 0 0 0 10 -10v-56a10 10 0 0 1 10 -10"></path><path d="M40 31a10 10 0 0 1 10 10v94a10 10 0 0 0 10 10"></path><g><path d="M60 145h25.5"></path><g><path d="M85.5 145h10"></path><path d="M183.5 145h10"></path><g class="non-terminal "><path d="M95.5 145h0"></path><path d="M183.5 145h0"></path><rect x="95.5" y="134" width="88" height="22" rx="10" ry="10"></rect><text x="139.5" y="149">let_stmt</text></g></g><path d="M193.5 145h25.5"></path></g><path d="M219 145a10 10 0 0 0 10 -10v-94a10 10 0 0 1 10 -10"></path><path d="M40 31a10 10 0 0 1 10 10v132a10 10 0 0 0 10 10"></path><g><path d="M60 183h21.25"></path><g><path d="M81.25 183h10"></path><path d="M187.75 183h10"></path><g class="non-terminal "><path d="M91.25 183h0"></path><path d="M187.75 183h0"></path><rect x="91.25" y="172" width="96.5" height="22" rx="10" ry="10"></rect><text x="139.5" y="187">loop_stmt</text></g></g><path d="M197.75 183h21.25"></path></g><path d="M219 183a10 10 0 0 0 10 -10v-132a10 10 0 0 1 10 -10"></path><path d="M40 31a10 10 0 0 1 10 10v170a10 10 0 0 0 10 10"></path><g><path d="M60 221h29.75"></path><g><path d="M89.75 221h10"></path><path d="M179.25 221h10"></path><g class="non-terminal "><path d="M99.75 221h0"></path><path d="M179.25 221h0"></path><rect x="99.75" y="210" width="79.5" height="22" rx="10" ry="10"></rect><text x="139.5" y="225">if_stmt</text></g></g><path d="M189.25 221h29.75"></path></g><path d="M219 221a10 10 0 0 0 10 -10v-170a10 10 0 0 1 10 -10"></path><path d="M40 31a10 10 0 0 1 10 10v208a10 10 0 0 0 10 10"></path><g><path d="M60 259h12.75"></path><g><path d="M72.75 259h10"></path><path d="M196.25 259h10"></path><g class="non-terminal "><path d="M82.75 259h0"></path><path d="M196.25 259h0"></path><rect x="82.75" y="248" width="113.5" height="22" rx="10" ry="10"></rect><text x="139.5" y="263">select_stmt</text></g></g><path d="M206.25 259h12.75"></path></g><path d="M219 259a10 10 0 0 0 10 -10v-208a10 10 0 0 1 10 -10"></path><path d="M40 31a10 10 0 0 1 10 10v246a10 10 0 0 0 10 10"></path><g><path d="M60 297h21.25"></path><g><path d="M81.25 297h10"></path><path d="M187.75 297h10"></path><g class="non-terminal "><path d="M91.25 297h0"></path><path d="M187.75 297h0"></path><rect x="91.25" y="286" width="96.5" height="22" rx="10" ry="10"></rect><text x="139.5" y="301">call_stmt</text></g></g><path d="M197.75 297h21.25"></path></g><path d="M219 297a10 10 0 0 0 10 -10v-246a10 10 0 0 1 10 -10"></path><path d="M40 31a10 10 0 0 1 10 10v284a10 10 0 0 0 10 10"></path><g><path d="M60 335h8.5"></path><g><path d="M68.5 335h10"></path><path d="M200.5 335h10"></path><g class="non-terminal "><path d="M78.5 335h0"></path><path d="M200.5 335h0"></path><rect x="78.5" y="324" width="122" height="22" rx="10" ry="10"></rect><text x="139.5" y="339">analyze_stmt</text></g></g><path d="M210.5 335h8.5"></path></g><path d="M219 335a10 10 0 0 0 10 -10v-284a10 10 0 0 1 10 -10"></path><path d="M40 31a10 10 0 0 1 10 10v322a10 10 0 0 0 10 10"></path><g><path d="M60 373h8.5"></path><g><path d="M68.5 373h10"></path><path d="M200.5 373h10"></path><g class="non-terminal "><path d="M78.5 373h0"></path><path d="M200.5 373h0"></path><rect x="78.5" y="362" width="122" height="22" rx="10" ry="10"></rect><text x="139.5" y="377">options_stmt</text></g></g><path d="M210.5 373h8.5"></path></g><path d="M219 373a10 10 0 0 0 10 -10v-322a10 10 0 0 1 10 -10"></path><path d="M40 31a10 10 0 0 1 10 10v360a10 10 0 0 0 10 10"></path><g><path d="M60 411h12.75"></path><g><path d="M72.75 411h10"></path><path d="M196.25 411h10"></path><g class="non-terminal "><path d="M82.75 411h0"></path><path d="M196.25 411h0"></path><rect x="82.75" y="400" width="113.5" height="22" rx="10" ry="10"></rect><text x="139.5" y="415">create_proc</text></g></g><path d="M206.25 411h12.75"></path></g><path d="M219 411a10 10 0 0 0 10 -10v-360a10 10 0 0 1 10 -10"></path><path d="M40 31a10 10 0 0 1 10 10v398a10 10 0 0 0 10 10"></path><g><path d="M60 449h21.25"></path><g><path d="M81.25 449h10"></path><path d="M187.75 449h10"></path><g class="non-terminal "><path d="M91.25 449h0"></path><path d="M187.75 449h0"></path><rect x="91.25" y="438" width="96.5" height="22" rx="10" ry="10"></rect><text x="139.5" y="453">drop_proc</text></g></g><path d="M197.75 449h21.25"></path></g><path d="M219 449a10 10 0 0 0 10 -10v-398a10 10 0 0 1 10 -10"></path><path d="M40 31a10 10 0 0 1 10 10v436a10 10 0 0 0 10 10"></path><g><path d="M60 487h12.75"></path><g><path d="M72.75 487h10"></path><path d="M196.25 487h10"></path><g class="non-terminal "><path d="M82.75 487h0"></path><path d="M196.25 487h0"></path><rect x="82.75" y="476" width="113.5" height="22" rx="10" ry="10"></rect><text x="139.5" y="491">create_func</text></g></g><path d="M206.25 487h12.75"></path></g><path d="M219 487a10 10 0 0 0 10 -10v-436a10 10 0 0 1 10 -10"></path><path d="M40 31a10 10 0 0 1 10 10v474a10 10 0 0 0 10 10"></path><g><path d="M60 525h21.25"></path><g><path d="M81.25 525h10"></path><path d="M187.75 525h10"></path><g class="non-terminal "><path d="M91.25 525h0"></path><path d="M187.75 525h0"></path><rect x="91.25" y="514" width="96.5" height="22" rx="10" ry="10"></rect><text x="139.5" y="529">drop_func</text></g></g><path d="M197.75 525h21.25"></path></g><path d="M219 525a10 10 0 0 0 10 -10v-474a10 10 0 0 1 10 -10"></path></g><path d="M 239 31 h 20 m 0 -10 v 20"></path></g><defs><style type="text/css">path {
stroke-width: 1.25;
stroke: #9cc2e5;
fill: rgba(0, 0, 0, 0);
}
text {
text-anchor: middle;
fill: #404040;
font-family: Calibri, Arial, sans-serif;
}
g.terminal text {
font-weight: bold;
}
g.non-terminal rect {
stroke-width: 1;
stroke: #9cc2e5;
fill: rgba(255, 255, 255, 1);
}
g.terminal rect {
stroke-width: 1;
stroke: #9cc2e5;
fill: rgba(255, 255, 255, 1);
}</style></defs></svg>