<?xml version="1.0" encoding="UTF-8" standalone="no"?>
<!DOCTYPE svg PUBLIC "-//W3C//DTD SVG 1.1//EN" "http://www.w3.org/Graphics/SVG/1.1/DTD/svg11.dtd">
<svg class="railroad-diagram" width="1350" height="78" viewBox="0 0 1350 78" id="sub_query" xmlns="http://www.w3.org/2000/svg" xmlns:xlink="http://www.w3.org/1999/xlink"><g transform="translate(.5 .5)"><g><path d="M20 37v20m0 -10h20"></path></g><g><path d="M40 47h0"></path><path d="M1310 47h0"></path><path d="M40 47h20"></path><g><path d="M60 47h0"></path><g><path d="M60 47h10"></path><path d="M1280 47h10"></path><g class="terminal "><path d="M70 47h0"></path><path d="M158 47h0"></path><rect x="70" y="36" width="88" height="22"></rect><text x="114" y="51">SELECT</text></g><path d="M158 47h10"></path><g><path d="M168 47h0"></path><path d="M313 47h0"></path><path d="M168 47a10 10 0 0 0 10 -10v-7a10 10 0 0 1 10 -10"></path><g><path d="M188 20h105"></path></g><path d="M293 20a10 10 0 0 1 10 10v7a10 10 0 0 0 10 10"></path><path d="M168 47h20"></path><g class="terminal "><path d="M188 47h0"></path><path d="M293 47h0"></path><rect x="188" y="36" width="105" height="22"></rect><text x="240.5" y="51">DISTINCT</text></g><path d="M293 47h20"></path></g><path d="M313 47h10"></path><g class="non-terminal "><path d="M323 47h0"></path><path d="M419.5 47h0"></path><rect x="323" y="36" width="96.5" height="22" rx="10" ry="10"></rect><text x="371.25" y="51">what_expr</text></g><path d="M419.5 47h10"></path><path d="M429.5 47h10"></path><g class="terminal "><path d="M439.5 47h0"></path><path d="M510.5 47h0"></path><rect x="439.5" y="36" width="71" height="22"></rect><text x="475" y="51">FROM</text></g><path d="M510.5 47h10"></path><path d="M520.5 47h10"></path><g class="non-terminal "><path d="M530.5 47h0"></path><path d="M661 47h0"></path><rect x="530.5" y="36" width="130.5" height="22" rx="10" ry="10"></rect><text x="595.75" y="51">ds_name_parts</text></g><path d="M661 47h10"></path><g><path d="M671 47h0"></path><path d="M975.5 47h0"></path><path d="M671 47a10 10 0 0 0 10 -10v-7a10 10 0 0 1 10 -10"></path><g><path d="M691 20h264.5"></path></g><path d="M955.5 20a10 10 0 0 1 10 10v7a10 10 0 0 0 10 10"></path><path d="M671 47h20"></path><g><path d="M691 47h0"></path><path d="M955.5 47h0"></path><path d="M691 47h20"></path><g><path d="M711 47h0"></path><g><path d="M711 47h10"></path><path d="M925.5 47h10"></path><g class="terminal "><path d="M721 47h0"></path><path d="M800.5 47h0"></path><rect x="721" y="36" width="79.5" height="22"></rect><text x="760.75" y="51">WHERE</text></g><path d="M800.5 47h10"></path><path d="M810.5 47h10"></path><g class="non-terminal "><path d="M820.5 47h0"></path><path d="M925.5 47h0"></path><rect x="820.5" y="36" width="105" height="22" rx="10" ry="10"></rect><text x="873" y="51">where_expr</text></g></g><path d="M935.5 47h0"></path></g><path d="M935.5 47h20"></path></g><path d="M955.5 47h20"></path></g><g><path d="M975.5 47h0"></path><path d="M1280 47h0"></path><path d="M975.5 47a10 10 0 0 0 10 -10v-7a10 10 0 0 1 10 -10"></path><g><path d="M995.5 20h264.5"></path></g><path d="M1260 20a10 10 0 0 1 10 10v7a10 10 0 0 0 10 10"></path><path d="M975.5 47h20"></path><g><path d="M995.5 47h0"></path><path d="M1260 47h0"></path><path d="M995.5 47h20"></path><g><path d="M1015.5 47h0"></path><g><path d="M1015.5 47h10"></path><path d="M1230 47h10"></path><g class="terminal "><path d="M1025.5 47h0"></path><path d="M1105 47h0"></path><rect x="1025.5" y="36" width="79.5" height="22"></rect><text x="1065.25" y="51">LIMIT</text></g><path d="M1105 47h10"></path><path d="M1115 47h10"></path><g class="non-terminal "><path d="M1125 47h0"></path><path d="M1230 47h0"></path><rect x="1125" y="36" width="105" height="22" rx="10" ry="10"></rect><text x="1177.5" y="51">limit_expr</text></g></g><path d="M1240 47h0"></path></g><path d="M1240 47h20"></path></g><path d="M1260 47h20"></path></g></g><path d="M1290 47h0"></path></g><path d="M1290 47h20"></path></g><path d="M 1310 47 h 20 m 0 -10 v 20"></path></g><defs><style type="text/css">path {
stroke-width: 1.25;
stroke: #9cc2e5;
fill: rgba(0, 0, 0, 0);
}
text {
text-anchor: middle;
fill: #404040;
font-family: Calibri, Arial, sans-serif;
}
g.terminal text {
font-weight: bold;
}
g.non-terminal rect {
stroke-width: 1;
stroke: #9cc2e5;
fill: rgba(255, 255, 255, 1);
}
g.terminal rect {
stroke-width: 1;
stroke: #9cc2e5;
fill: rgba(255, 255, 255, 1);
}</style></defs></svg>