<?xml version="1.0" encoding="UTF-8" standalone="no"?>
<!DOCTYPE svg PUBLIC "-//W3C//DTD SVG 1.1//EN" "http://www.w3.org/Graphics/SVG/1.1/DTD/svg11.dtd">
<svg class="railroad-diagram" width="1363" height="110" viewBox="0 0 1363 110" id="transform_stmt" xmlns="http://www.w3.org/2000/svg" xmlns:xlink="http://www.w3.org/1999/xlink"><g transform="translate(.5 .5)"><g><path d="M20 53v20m0 -10h20"></path></g><g><path d="M40 63h0"></path><path d="M1323 63h0"></path><path d="M40 63h20"></path><g><path d="M60 63h0"></path><g><path d="M60 63h10"></path><path d="M1293 63h10"></path><g class="terminal "><path d="M70 63h0"></path><path d="M183.5 63h0"></path><rect x="70" y="52" width="113.5" height="22"></rect><text x="126.75" y="67">TRANSFORM</text></g><path d="M183.5 63h10"></path><g><path d="M193.5 63h0"></path><path d="M287.5 63h0"></path><path d="M193.5 63a10 10 0 0 0 10 -10v-7a10 10 0 0 1 10 -10"></path><g><path d="M213.5 36h54"></path></g><path d="M267.5 36a10 10 0 0 1 10 10v7a10 10 0 0 0 10 10"></path><path d="M193.5 63h20"></path><g class="terminal "><path d="M213.5 63h0"></path><path d="M267.5 63h0"></path><rect x="213.5" y="52" width="54" height="22"></rect><text x="240.5" y="67">DS</text></g><path d="M267.5 63h20"></path></g><path d="M287.5 63h10"></path><g class="non-terminal "><path d="M297.5 63h0"></path><path d="M377 63h0"></path><rect x="297.5" y="52" width="79.5" height="22" rx="10" ry="10"></rect><text x="337.25" y="67">ds_name</text></g><path d="M377 63h10"></path><g><path d="M387 63h0"></path><path d="M498 63h0"></path><path d="M387 63a10 10 0 0 0 10 -10v-7a10 10 0 0 1 10 -10"></path><g><path d="M407 36h71"></path></g><path d="M478 36a10 10 0 0 1 10 10v7a10 10 0 0 0 10 10"></path><path d="M387 63h20"></path><g class="terminal "><path d="M407 63h0"></path><path d="M478 63h0"></path><rect x="407" y="52" width="71" height="22"></rect><text x="442.5" y="67">*</text></g><path d="M478 63h20"></path></g><path d="M498 63h10"></path><g class="non-terminal "><path d="M508 63h0"></path><path d="M604.5 63h0"></path><rect x="508" y="52" width="96.5" height="22" rx="10" ry="10"></rect><text x="556.25" y="67">func_expr</text></g><path d="M604.5 63h10"></path><g><path d="M614.5 63h0"></path><path d="M796.5 63h0"></path><path d="M614.5 63a10 10 0 0 0 10 -10v-7a10 10 0 0 1 10 -10"></path><g><path d="M634.5 36h142"></path></g><path d="M776.5 36a10 10 0 0 1 10 10v7a10 10 0 0 0 10 10"></path><path d="M614.5 63h20"></path><g><path d="M634.5 63h0"></path><path d="M776.5 63h0"></path><path d="M634.5 63h10"></path><g class="non-terminal "><path d="M644.5 63h0"></path><path d="M766.5 63h0"></path><rect x="644.5" y="52" width="122" height="22" rx="10" ry="10"></rect><text x="705.5" y="67">columns_item</text></g><path d="M766.5 63h10"></path><path d="M644.5 63a10 10 0 0 0 -10 10v7a10 10 0 0 0 10 10"></path><g><path d="M644.5 90h122"></path></g><path d="M766.5 90a10 10 0 0 0 10 -10v-7a10 10 0 0 0 -10 -10"></path></g><path d="M776.5 63h20"></path></g><g><path d="M796.5 63h0"></path><path d="M924.5 63h0"></path><path d="M796.5 63a10 10 0 0 0 10 -10v-7a10 10 0 0 1 10 -10"></path><g><path d="M816.5 36h88"></path></g><path d="M904.5 36a10 10 0 0 1 10 10v7a10 10 0 0 0 10 10"></path><path d="M796.5 63h20"></path><g class="non-terminal "><path d="M816.5 63h0"></path><path d="M904.5 63h0"></path><rect x="816.5" y="52" width="88" height="22" rx="10" ry="10"></rect><text x="860.5" y="67">key_item</text></g><path d="M904.5 63h20"></path></g><g><path d="M924.5 63h0"></path><path d="M1293 63h0"></path><path d="M924.5 63a10 10 0 0 0 10 -10v-23a10 10 0 0 1 10 -10"></path><g><path d="M944.5 20h328.5"></path></g><path d="M1273 20a10 10 0 0 1 10 10v23a10 10 0 0 0 10 10"></path><path d="M924.5 63h20"></path><g><path d="M944.5 63h0"></path><path d="M1273 63h0"></path><path d="M944.5 63h20"></path><g><path d="M964.5 63h0"></path><g><path d="M964.5 63h10"></path><path d="M1243 63h10"></path><g class="terminal "><path d="M974.5 63h0"></path><path d="M1088 63h0"></path><rect x="974.5" y="52" width="113.5" height="22"></rect><text x="1031.25" y="67">PARTITION</text></g><path d="M1088 63h10"></path><g><path d="M1098 63h0"></path><path d="M1243 63h0"></path><path d="M1098 63a10 10 0 0 0 10 -10v-7a10 10 0 0 1 10 -10"></path><g><path d="M1118 36h105"></path></g><path d="M1223 36a10 10 0 0 1 10 10v7a10 10 0 0 0 10 10"></path><path d="M1098 63h20"></path><g class="non-terminal "><path d="M1118 63h0"></path><path d="M1223 63h0"></path><rect x="1118" y="52" width="105" height="22" rx="10" ry="10"></rect><text x="1170.5" y="67">expression</text></g><path d="M1223 63h20"></path></g></g><path d="M1253 63h0"></path></g><path d="M1253 63h20"></path></g><path d="M1273 63h20"></path></g></g><path d="M1303 63h0"></path></g><path d="M1303 63h20"></path></g><path d="M 1323 63 h 20 m 0 -10 v 20"></path></g><defs><style type="text/css">path {
stroke-width: 1.25;
stroke: #9cc2e5;
fill: rgba(0, 0, 0, 0);
}
text {
text-anchor: middle;
fill: #404040;
font-family: Calibri, Arial, sans-serif;
}
g.terminal text {
font-weight: bold;
}
g.non-terminal rect {
stroke-width: 1;
stroke: #9cc2e5;
fill: rgba(255, 255, 255, 1);
}
g.terminal rect {
stroke-width: 1;
stroke: #9cc2e5;
fill: rgba(255, 255, 255, 1);
}</style></defs></svg>