<?xml version="1.0" encoding="UTF-8" standalone="no"?>
<!DOCTYPE svg PUBLIC "-//W3C//DTD SVG 1.1//EN" "http://www.w3.org/Graphics/SVG/1.1/DTD/svg11.dtd">
<svg class="railroad-diagram" width="392" height="154" viewBox="0 0 392 154" id="union_op" xmlns="http://www.w3.org/2000/svg" xmlns:xlink="http://www.w3.org/1999/xlink"><g transform="translate(.5 .5)"><g><path d="M20 37v20m0 -10h20"></path></g><g><path d="M40 47h0"></path><path d="M352 47h0"></path><path d="M40 47h20"></path><g><path d="M60 47h0"></path><g><path d="M60 47h10"></path><path d="M322 47h10"></path><g class="terminal "><path d="M70 47h0"></path><path d="M149.5 47h0"></path><rect x="70" y="36" width="79.5" height="22"></rect><text x="109.75" y="51">UNION</text></g><path d="M149.5 47h10"></path><g><path d="M159.5 47h0"></path><path d="M322 47h0"></path><path d="M159.5 47a10 10 0 0 0 10 -10v-7a10 10 0 0 1 10 -10"></path><g><path d="M179.5 20h122.5"></path></g><path d="M302 20a10 10 0 0 1 10 10v7a10 10 0 0 0 10 10"></path><path d="M159.5 47h20"></path><g><path d="M179.5 47h0"></path><path d="M302 47h0"></path><path d="M179.5 47h20"></path><g><path d="M199.5 47h0"></path><g><path d="M199.5 47h10"></path><path d="M272 47h10"></path><g class="terminal "><path d="M209.5 47h0"></path><path d="M272 47h0"></path><rect x="209.5" y="36" width="62.5" height="22"></rect><text x="240.75" y="51">CAT</text></g></g><path d="M282 47h0"></path></g><path d="M282 47h20"></path><path d="M179.5 47a10 10 0 0 1 10 10v18a10 10 0 0 0 10 10"></path><g><path d="M199.5 85h0"></path><g><path d="M199.5 85h10"></path><path d="M272 85h10"></path><g class="terminal "><path d="M209.5 85h0"></path><path d="M272 85h0"></path><rect x="209.5" y="74" width="62.5" height="22"></rect><text x="240.75" y="89">XOR</text></g></g><path d="M282 85h0"></path></g><path d="M282 85a10 10 0 0 0 10 -10v-18a10 10 0 0 1 10 -10"></path><path d="M179.5 47a10 10 0 0 1 10 10v56a10 10 0 0 0 10 10"></path><g><path d="M199.5 123h0"></path><g><path d="M199.5 123h10"></path><path d="M272 123h10"></path><g class="terminal "><path d="M209.5 123h0"></path><path d="M272 123h0"></path><rect x="209.5" y="112" width="62.5" height="22"></rect><text x="240.75" y="127">AND</text></g></g><path d="M282 123h0"></path></g><path d="M282 123a10 10 0 0 0 10 -10v-56a10 10 0 0 1 10 -10"></path></g><path d="M302 47h20"></path></g></g><path d="M332 47h0"></path></g><path d="M332 47h20"></path></g><path d="M 352 47 h 20 m 0 -10 v 20"></path></g><defs><style type="text/css">path {
stroke-width: 1.25;
stroke: #9cc2e5;
fill: rgba(0, 0, 0, 0);
}
text {
text-anchor: middle;
fill: #404040;
font-family: Calibri, Arial, sans-serif;
}
g.terminal text {
font-weight: bold;
}
g.non-terminal rect {
stroke-width: 1;
stroke: #9cc2e5;
fill: rgba(255, 255, 255, 1);
}
g.terminal rect {
stroke-width: 1;
stroke: #9cc2e5;
fill: rgba(255, 255, 255, 1);
}</style></defs></svg>