<?xml version="1.0" encoding="UTF-8" standalone="no"?>
<!DOCTYPE svg PUBLIC "-//W3C//DTD SVG 1.1//EN" "http://www.w3.org/Graphics/SVG/1.1/DTD/svg11.dtd">
<svg class="railroad-diagram" width="636.5" height="94" viewBox="0 0 636.5 94" id="what_expr" xmlns="http://www.w3.org/2000/svg" xmlns:xlink="http://www.w3.org/1999/xlink"><g transform="translate(.5 .5)"><g><path d="M20 53v20m0 -10h20"></path></g><g><path d="M40 63h0"></path><path d="M596.5 63h0"></path><path d="M40 63h20"></path><g><path d="M60 63h0"></path><g><path d="M60 63h10"></path><path d="M566.5 63h10"></path><g class="non-terminal "><path d="M70 63h0"></path><path d="M175 63h0"></path><rect x="70" y="52" width="105" height="22" rx="10" ry="10"></rect><text x="122.5" y="67">expression</text></g><path d="M175 63h10"></path><g><path d="M185 63h0"></path><path d="M566.5 63h0"></path><path d="M185 63a10 10 0 0 0 10 -10v-23a10 10 0 0 1 10 -10"></path><g><path d="M205 20h341.5"></path></g><path d="M546.5 20a10 10 0 0 1 10 10v23a10 10 0 0 0 10 10"></path><path d="M185 63h20"></path><g><path d="M205 63h0"></path><path d="M546.5 63h0"></path><path d="M205 63h20"></path><g><path d="M225 63h0"></path><g><path d="M225 63h10"></path><path d="M516.5 63h10"></path><g class="terminal "><path d="M235 63h0"></path><path d="M289 63h0"></path><rect x="235" y="52" width="54" height="22"></rect><text x="262" y="67">AS</text></g><path d="M289 63h10"></path><g><path d="M299 63h0"></path><path d="M444 63h0"></path><path d="M299 63a10 10 0 0 0 10 -10v-7a10 10 0 0 1 10 -10"></path><g><path d="M319 36h105"></path></g><path d="M424 36a10 10 0 0 1 10 10v7a10 10 0 0 0 10 10"></path><path d="M299 63h20"></path><g class="non-terminal "><path d="M319 63h0"></path><path d="M424 63h0"></path><rect x="319" y="52" width="105" height="22" rx="10" ry="10"></rect><text x="371.5" y="67">type_alias</text></g><path d="M424 63h20"></path></g><path d="M444 63h10"></path><g class="non-terminal "><path d="M454 63h0"></path><path d="M516.5 63h0"></path><rect x="454" y="52" width="62.5" height="22" rx="10" ry="10"></rect><text x="485.25" y="67">alias</text></g></g><path d="M526.5 63h0"></path></g><path d="M526.5 63h20"></path></g><path d="M546.5 63h20"></path></g></g><path d="M576.5 63h0"></path></g><path d="M576.5 63h20"></path></g><path d="M 596.5 63 h 20 m 0 -10 v 20"></path></g><defs><style type="text/css">path {
stroke-width: 1.25;
stroke: #9cc2e5;
fill: rgba(0, 0, 0, 0);
}
text {
text-anchor: middle;
fill: #404040;
font-family: Calibri, Arial, sans-serif;
}
g.terminal text {
font-weight: bold;
}
g.non-terminal rect {
stroke-width: 1;
stroke: #9cc2e5;
fill: rgba(255, 255, 255, 1);
}
g.terminal rect {
stroke-width: 1;
stroke: #9cc2e5;
fill: rgba(255, 255, 255, 1);
}</style></defs></svg>